<?xml version="1.0" encoding="utf-8"?>
<!-- Generator: Adobe Illustrator 26.5.0, SVG Export Plug-In . SVG Version: 6.00 Build 0)  -->
<svg version="1.0" id="katman_1" xmlns="http://www.w3.org/2000/svg" xmlns:xlink="http://www.w3.org/1999/xlink" x="0px" y="0px"
	 viewBox="0 0 1190.55 841.89" style="enable-background:new 0 0 1190.55 841.89;" xml:space="preserve">
<style type="text/css">
	.st0{fill:#0D4377;}
	.st1{fill:#B3CC0E;}
</style>
<g id="Ecommerce_Europe_Trustmark">
	<path class="st0" d="M408.4,276.1h38.59c0.37,1.84,0.61,3.8,0.61,5.76c0,2.08-0.12,4.04-0.61,6h-24.75v14.82h19.72
		c0.37,1.96,0.61,4.04,0.61,5.88c0,1.96-0.12,4.04-0.61,6h-19.72v18.01h25.48c0.37,1.84,0.61,3.8,0.61,5.76c0,2.08-0.12,4.04-0.61,6
		H408.4L408.4,276.1L408.4,276.1z"/>
	<path class="st0" d="M508,331.35c0.86,1.84,1.59,3.55,2.08,5.39c0.49,1.84,0.86,3.8,1.23,5.64c-3.31,1.23-6.25,1.96-8.82,2.33
		c-2.7,0.37-5.51,0.61-8.45,0.61c-5.39,0-10.05-0.86-14.09-2.57c-4.04-1.72-7.47-4.17-10.17-7.35c-2.82-3.19-4.9-6.86-6.25-11.15
		c-1.47-4.29-2.08-8.94-2.08-13.97s0.74-9.68,2.21-14.09c1.47-4.29,3.55-8.09,6.25-11.27s6.13-5.64,10.05-7.35
		c4.04-1.72,8.58-2.7,13.72-2.7c3.06,0,5.76,0.25,8.33,0.61c2.57,0.37,5.39,1.23,8.33,2.33c-0.12,1.84-0.49,3.68-1.1,5.51
		c-0.61,1.84-1.35,3.68-2.08,5.51c-2.21-0.74-4.17-1.23-5.88-1.59c-1.72-0.37-3.68-0.49-6.13-0.49c-6,0-10.66,1.96-13.97,5.88
		s-4.9,9.8-4.9,17.52c0,15.44,6.62,23.15,19.6,23.15c2.33,0,4.41-0.12,6.13-0.49C503.71,332.57,505.8,332.08,508,331.35"/>
	<path class="st0" d="M552.11,345.31c-5.15,0-9.56-0.86-13.23-2.57c-3.68-1.72-6.74-4.17-9.19-7.35c-2.33-3.19-4.17-6.86-5.39-11.15
		c-1.1-4.29-1.84-8.94-1.84-13.97s0.61-9.68,1.84-14.09c1.23-4.29,2.94-8.09,5.39-11.27c2.45-3.19,5.51-5.64,9.19-7.35
		c3.8-1.72,8.21-2.57,13.23-2.57c5.15,0,9.56,0.86,13.23,2.57c3.8,1.84,6.86,4.29,9.19,7.35c2.45,3.19,4.17,6.86,5.39,11.27
		s1.72,9.07,1.72,14.09c0,5.02-0.61,9.68-1.72,13.97c-1.1,4.29-2.94,7.96-5.39,11.15c-2.33,3.06-5.39,5.51-9.19,7.35
		C561.66,344.46,557.13,345.31,552.11,345.31 M552.11,333.8c9.8,0,14.7-7.84,14.7-23.52c0-7.84-1.23-13.72-3.55-17.64
		s-6-5.88-11.03-5.88c-9.92,0-14.82,7.84-14.82,23.52C537.28,325.96,542.18,333.8,552.11,333.8"/>
	<path class="st0" d="M600.5,276.1c2.57-0.37,4.9-0.61,7.35-0.61c2.45,0,4.9,0.12,7.35,0.61l15.68,39.08l16.05-39.08
		c1.96-0.37,4.17-0.61,6.49-0.61c2.33,0,4.78,0.12,6.86,0.61l3.19,68.12c-2.45,0.37-4.66,0.61-6.86,0.61
		c-2.21,0-4.29-0.12-6.37-0.61l-1.72-46.19l-13.84,32.1c-0.86,0.12-1.84,0.25-2.82,0.37c-0.86,0.12-1.84,0.12-2.82,0.12
		c-0.86,0-1.59,0-2.45-0.12c-0.86-0.12-1.59-0.25-2.57-0.37l-12.86-32.71l-1.35,46.92c-2.08,0.37-3.92,0.61-5.88,0.61
		c-1.96,0-4.04-0.12-6.25-0.61L600.5,276.1z"/>
	<path class="st0" d="M683.93,276.1c2.57-0.37,4.9-0.61,7.35-0.61c2.45,0,4.9,0.12,7.23,0.61l15.56,39.08l16.17-39.08
		c1.96-0.37,4.17-0.61,6.49-0.61s4.66,0.12,6.86,0.61l3.19,68.12c-2.45,0.37-4.66,0.61-6.86,0.61c-2.08,0-4.29-0.12-6.37-0.61
		l-1.72-46.19l-13.84,32.1c-0.86,0.12-1.84,0.25-2.7,0.37c-0.98,0.12-1.84,0.12-2.82,0.12c-0.86,0-1.59,0-2.45-0.12
		c-0.86-0.12-1.59-0.25-2.57-0.37l-12.86-32.71l-1.35,46.92c-1.96,0.37-3.92,0.61-5.88,0.61c-2.08,0-4.17-0.12-6.25-0.61
		L683.93,276.1z"/>
	<path class="st0" d="M765.77,276.1h38.71c0.37,1.84,0.49,3.8,0.49,5.76c0,2.08-0.12,4.04-0.49,6h-24.87v14.82h19.72
		c0.37,1.96,0.61,4.04,0.61,5.88c0,1.96-0.25,4.04-0.61,6h-19.72v18.01h25.48c0.37,1.84,0.61,3.8,0.61,5.76c0,2.08-0.25,4.04-0.61,6
		h-39.33V276.1z"/>
	<path class="st0" d="M822.49,276.1c2.82-0.37,5.39-0.61,7.84-0.74c2.45-0.25,5.15-0.37,8.09-0.37c3.43,0,6.86,0.37,10.29,0.98
		s6.37,1.72,9.19,3.43c2.7,1.59,4.9,3.8,6.62,6.49c1.59,2.7,2.57,6.25,2.57,10.54c0,2.57-0.37,4.78-0.98,6.62
		c-0.61,1.96-1.47,3.68-2.45,5.02c-0.98,1.47-1.96,2.7-3.19,3.8c-1.1,0.98-2.21,1.84-3.19,2.45l-1.59,1.1l16.54,28.79
		c-1.23,0.12-2.57,0.25-3.92,0.37c-1.47,0.12-2.82,0.24-4.29,0.24c-2.45,0-4.78-0.24-7.11-0.61l-17.76-31.61l2.33-1.1
		c0.86-0.37,1.96-0.98,3.19-1.72c1.23-0.74,2.45-1.59,3.68-2.57c1.23-1.1,2.21-2.33,2.94-3.8c0.86-1.47,1.23-3.19,1.23-5.27
		c0-3.92-1.1-6.86-3.43-8.7c-2.33-1.96-5.27-2.82-8.82-2.82c-1.35,0-2.7,0.12-3.8,0.37v57.46c-1.1,0.12-2.21,0.25-3.43,0.37
		c-1.1,0.12-2.21,0.12-3.31,0.12s-2.21,0-3.43-0.12c-1.23-0.12-2.45-0.12-3.68-0.37V276.1H822.49z"/>
	<path class="st0" d="M929.19,331.35c0.86,1.84,1.47,3.55,2.08,5.39c0.49,1.84,0.86,3.8,1.23,5.64c-3.31,1.23-6.25,1.96-8.82,2.33
		c-2.57,0.37-5.51,0.61-8.45,0.61c-5.39,0-10.05-0.86-14.09-2.57c-4.04-1.72-7.47-4.17-10.17-7.35s-4.78-6.86-6.13-11.15
		c-1.47-4.29-2.08-8.94-2.08-13.97s0.74-9.68,2.21-14.09c1.47-4.29,3.55-8.09,6.25-11.27c2.7-3.19,6.13-5.64,10.17-7.35
		s8.58-2.7,13.72-2.7c3.06,0,5.88,0.25,8.33,0.61c2.57,0.37,5.27,1.23,8.33,2.33c-0.12,1.84-0.49,3.68-1.1,5.51
		c-0.61,1.84-1.35,3.68-2.08,5.51c-2.21-0.74-4.17-1.23-5.88-1.59c-1.59-0.37-3.68-0.49-6-0.49c-6.13,0-10.78,1.96-13.97,5.88
		c-3.31,3.92-4.9,9.8-4.9,17.52c0,15.44,6.49,23.15,19.6,23.15c2.33,0,4.41-0.12,6.13-0.49
		C925.03,332.57,926.99,332.08,929.19,331.35"/>
	<path class="st0" d="M948.06,276.1h38.71c0.37,1.84,0.61,3.8,0.61,5.76c0,2.08-0.25,4.04-0.61,6h-24.87v14.82h19.72
		c0.37,1.96,0.61,4.04,0.61,5.88c0,1.96-0.12,4.04-0.61,6h-19.72v18.01h25.48c0.37,1.84,0.61,3.8,0.61,5.76c0,2.08-0.12,4.04-0.61,6
		h-39.33V276.1z"/>
	<path class="st0" d="M410.12,372.51h37.49c0.12,1.23,0.25,2.7,0.25,4.17c0,0.74,0,1.47-0.12,2.21c0,0.74-0.12,1.47-0.25,2.08
		h-27.81v19.48h22.17c0.12,0.61,0.25,1.35,0.25,2.08c0.12,0.74,0.12,1.47,0.12,2.08c0,0.74,0,1.47-0.12,2.21
		c-0.12,0.74-0.12,1.47-0.25,2.08h-22.17v23.28h28.55c0.12,1.23,0.25,2.7,0.25,4.17c0,0.74,0,1.47,0,2.21
		c0,0.74-0.12,1.47-0.25,2.08h-38.22v-68.12H410.12z"/>
	<path class="st0" d="M465.37,372.51c1.59-0.25,3.19-0.25,4.9-0.25s3.31,0.12,4.78,0.25v38.71c0,3.92,0.25,7.23,0.74,10.05
		c0.49,2.82,1.35,5.02,2.45,6.74c1.1,1.72,2.57,3.06,4.53,3.8c1.84,0.86,4.17,1.23,6.86,1.23c2.7,0,5.02-0.37,6.86-1.23
		c1.84-0.86,3.31-2.08,4.41-3.8s1.96-4.04,2.45-6.74c0.49-2.82,0.74-6.13,0.74-10.05v-38.71c1.59-0.24,3.19-0.24,4.78-0.24
		c1.72,0,3.43,0.12,4.9,0.24v40.43c0,4.53-0.37,8.58-1.23,12.25c-0.86,3.68-2.21,6.62-4.17,9.07s-4.41,4.29-7.6,5.64
		c-3.06,1.35-6.86,1.96-11.27,1.96s-8.21-0.61-11.27-1.96c-3.06-1.35-5.64-3.19-7.6-5.64c-1.96-2.45-3.31-5.51-4.17-9.07
		c-0.86-3.55-1.35-7.72-1.35-12.25v-40.43H465.37z"/>
	<path class="st0" d="M535.93,372.51c1.35-0.12,2.7-0.25,3.8-0.37c1.1-0.12,2.33-0.25,3.31-0.37c1.1-0.12,2.21-0.12,3.43-0.25
		c1.23-0.12,2.57-0.12,4.04-0.12c3.19,0,6.37,0.25,9.56,0.86c3.19,0.61,6,1.72,8.45,3.31c2.45,1.47,4.53,3.68,6,6.37
		c1.59,2.7,2.33,6,2.33,10.17c0,2.45-0.37,4.78-1.23,6.74s-1.84,3.8-3.19,5.39c-1.23,1.59-2.7,2.94-4.29,4.17
		c-1.59,1.1-3.19,2.08-4.66,2.82l-1.1,0.61l19.85,28.67c-1.72,0.12-3.68,0.25-5.76,0.25c-1.72,0-3.43-0.12-5.15-0.25l-21.81-31.61
		v-0.37l0.74-0.12c1.72-0.49,3.55-1.1,5.39-1.84c1.84-0.74,3.68-1.72,5.27-3.06c1.59-1.23,2.94-2.7,4.04-4.53
		c1.1-1.72,1.59-3.8,1.59-6.25c0-4.53-1.35-7.96-4.04-10.17c-2.7-2.21-6.37-3.31-10.9-3.31c-1.1,0-2.08,0.12-2.94,0.12
		c-0.86,0-1.96,0.12-3.06,0.25v60.77c-0.74,0-1.47,0.12-2.33,0.12c-0.86,0.12-1.72,0.12-2.45,0.12c-0.74,0-1.59,0-2.45,0
		c-0.86-0.12-1.72-0.12-2.45-0.25L535.93,372.51L535.93,372.51z"/>
	<path class="st0" d="M623.04,441.85c-4.9,0-9.19-0.86-12.74-2.57s-6.62-4.17-8.94-7.35c-2.33-3.06-4.17-6.86-5.27-11.15
		c-1.23-4.29-1.72-8.94-1.72-14.09c0-5.15,0.61-9.8,1.72-14.09c1.23-4.29,2.94-7.96,5.27-11.15c2.33-3.06,5.39-5.64,8.94-7.35
		s7.84-2.57,12.74-2.57s9.19,0.86,12.74,2.57c3.68,1.72,6.62,4.17,8.94,7.35c2.33,3.19,4.17,6.86,5.27,11.15
		c1.1,4.29,1.72,8.94,1.72,14.09c0,5.15-0.61,9.8-1.72,14.09c-1.1,4.29-2.82,7.96-5.27,11.15c-2.33,3.19-5.39,5.51-8.94,7.35
		C632.23,441,627.94,441.85,623.04,441.85 M623.04,433.52c3.19,0,5.88-0.61,8.21-1.84c2.33-1.23,4.17-3.06,5.76-5.39
		c1.47-2.33,2.7-5.15,3.43-8.45c0.74-3.31,1.1-6.98,1.1-11.15c0-4.04-0.37-7.84-1.1-11.15c-0.74-3.31-1.96-6.13-3.43-8.45
		c-1.47-2.33-3.43-4.17-5.76-5.39c-2.33-1.23-5.02-1.84-8.21-1.84s-5.88,0.61-8.21,1.84c-2.33,1.23-4.29,3.06-5.76,5.39
		c-1.59,2.33-2.7,5.15-3.43,8.45c-0.74,3.31-1.1,6.98-1.1,11.15c0,4.17,0.37,7.96,1.1,11.15c0.74,3.31,1.84,6.13,3.43,8.45
		c1.47,2.33,3.43,4.17,5.76,5.39C617.04,432.91,619.85,433.52,623.04,433.52"/>
	<path class="st0" d="M671.43,372.51c0.98-0.12,2.08-0.25,3.43-0.37c1.23-0.12,2.7-0.25,4.04-0.37c1.47-0.12,2.82-0.12,4.29-0.25
		c1.35-0.12,2.82-0.12,4.17-0.12c3.43,0,6.74,0.37,9.92,0.98c3.06,0.74,5.88,1.84,8.21,3.55c2.33,1.72,4.29,3.92,5.64,6.74
		c1.35,2.82,2.08,6.37,2.08,10.54c0,4.41-0.74,8.09-2.21,11.03c-1.47,2.94-3.43,5.27-5.88,7.11c-2.45,1.72-5.27,2.94-8.33,3.68
		c-3.19,0.74-6.25,1.1-9.43,1.1c-1.23,0-2.33,0-3.19-0.12c-0.86,0-1.96-0.12-2.94-0.25v24.62c-1.47,0.12-3.06,0.25-4.9,0.25
		c-0.74,0-1.59,0-2.33,0c-0.86-0.12-1.59-0.12-2.45-0.25v-67.87H671.43z M681.11,407.55c0.98,0.12,1.96,0.25,2.7,0.25
		c0.74,0.12,1.84,0.12,3.31,0.12c1.96,0,3.92-0.25,5.76-0.61c1.96-0.37,3.68-1.1,5.15-2.21c1.59-1.1,2.7-2.57,3.68-4.41
		c0.98-1.84,1.35-4.29,1.35-7.23c0-2.57-0.37-4.78-1.23-6.49c-0.86-1.84-1.84-3.19-3.31-4.29c-1.35-1.1-3.06-1.84-5.02-2.33
		c-1.96-0.49-4.04-0.61-6.37-0.61s-4.41,0.12-6.13,0.25v27.56H681.11z"/>
	<path class="st0" d="M730.48,372.51h37.37c0.12,1.23,0.25,2.7,0.25,4.17c0,0.74,0,1.47,0,2.21c0,0.74-0.12,1.47-0.25,2.08h-27.81
		v19.48h22.17c0.12,0.61,0.24,1.35,0.24,2.08c0,0.74,0.12,1.47,0.12,2.08c0,0.74,0,1.47-0.12,2.21c0,0.74-0.12,1.47-0.24,2.08
		h-22.17v23.28h28.55c0.12,1.23,0.24,2.7,0.24,4.17c0,0.74,0,1.47,0,2.21c0,0.74-0.12,1.47-0.24,2.08h-38.22v-68.12H730.48z"/>
	<path class="st0" d="M276.7,354.87l13.11,37.24l41.04,0.49l-32.83,23.52l12.25,37.49l-33.45-22.66l-33.45,22.66l12.13-37.49
		l-32.96-23.52l40.92-0.49L276.7,354.87z M300.96,250.86l-41.04,0.49l32.83,23.52l-12.13,37.49l33.45-22.66l33.45,22.66
		l-12.13-37.49l32.83-23.52l-41.04-0.49l-13.11-37.24L300.96,250.86z M443.07,172.45l32.83-23.52l-41.04-0.49l-12.99-37.12
		l-13.11,37.24l-40.92,0.49l32.83,23.52l-12.25,37.49l33.45-22.66l33.45,22.66 M408.65,632.48l-40.92,0.49l32.83,23.52l-12.25,37.49
		l33.45-22.66l33.45,22.66l-12.13-37.49l32.83-23.52l-41.04-0.49l-13.11-37.24L408.65,632.48z M700.1,632.48l-41.04,0.49
		l32.83,23.52l-12.25,37.49l33.45-22.66l33.45,22.66l-12.13-37.49l32.83-23.52l-41.04-0.49l-13.11-37.24L700.1,632.48z
		 M300.96,530.18l-41.04,0.49l32.83,23.52l-12.13,37.49l33.45-22.66l33.45,22.66l-12.13-37.49l32.83-23.52l-41.04-0.49l-13.11-37.24
		L300.96,530.18z M806.81,530.18l-40.92,0.49l32.83,23.52l-12.13,37.49l33.45-22.66l33.45,22.66l-12.13-37.49l32.83-23.52
		l-40.92-0.49l-13.11-37.24L806.81,530.18z M554.92,669.36L514,669.85l32.83,23.4l-12.13,37.49l33.45-22.66l33.45,22.66
		l-12.25-37.49l32.83-23.4l-40.92-0.49l-13.11-37.24L554.92,669.36z"/>
	<path class="st0" d="M693.36,215.33h-6.13c0-0.98,0.12-1.96,0.25-2.94c0.12-0.98,0.49-1.96,0.86-3.06h6.13
		c0.25-1.35,0.49-2.7,0.74-4.04c0.25-1.35,0.25-2.82,0.25-4.29v-1.23c0.98-0.49,2.21-0.86,3.68-1.1c1.47-0.25,2.7-0.37,3.68-0.37
		c0,0.49,0.12,0.86,0.12,1.35c0,0.49,0,0.98,0,1.47c0,1.59-0.25,3.55-0.61,5.88l-0.49,2.33h9.8c0,1.1-0.12,2.21-0.24,3.06
		c-0.12,0.98-0.37,1.96-0.74,2.94h-9.8l-2.94,16.54c-0.25,1.23-0.49,2.33-0.74,3.68c-0.25,1.23-0.37,2.33-0.37,3.43
		c0,1.59,0.37,2.57,1.23,3.19c0.74,0.61,1.84,0.86,3.19,0.86c0.86,0,1.72-0.12,2.33-0.25c0.74-0.12,1.47-0.25,2.08-0.49
		c0.12,0.49,0.24,1.1,0.37,1.72c0.12,0.61,0.12,1.23,0.12,1.96v1.1c0,0.37,0,0.74-0.12,1.23c-0.61,0.25-1.47,0.37-2.57,0.61
		c-1.1,0.12-2.21,0.25-3.43,0.25c-1.59,0-3.06-0.12-4.41-0.37c-1.35-0.25-2.45-0.61-3.43-1.35c-0.98-0.61-1.72-1.47-2.21-2.57
		c-0.49-1.1-0.86-2.57-0.86-4.29c0-0.98,0.12-1.96,0.25-3.06c0.12-1.1,0.37-2.21,0.61-3.43L693.36,215.33z"/>
	<path class="st0" d="M718.84,248.41c0.61-3.19,1.23-6.62,1.84-10.17c0.74-3.55,1.35-6.98,1.96-10.29c0.61-3.31,1.1-6.37,1.47-9.19
		c0.37-2.82,0.61-5.02,0.61-6.62c0-0.61,0-1.23,0-1.59c0-0.37-0.12-0.86-0.25-1.47c0.61-0.12,1.23-0.12,1.84-0.25
		c0.61,0,1.23,0,1.84,0c0.49,0,1.1,0,1.72,0c0.61,0,1.23,0.12,1.72,0.25c0.12,0.37,0.12,0.86,0.24,1.35c0,0.49,0.12,1.1,0.12,2.08
		c0,1.23-0.12,2.33-0.25,3.43c0.61-0.86,1.35-1.84,2.21-2.57c0.74-0.86,1.72-1.59,2.57-2.21c0.98-0.61,2.08-1.23,3.19-1.59
		c1.23-0.37,2.45-0.61,3.92-0.61c0.37,0,0.86,0,1.35,0.12c0.49,0,0.86,0.12,1.23,0.25c0,0.98-0.12,2.21-0.37,3.43
		c-0.25,1.35-0.61,2.45-1.23,3.31c-0.25,0-0.49-0.12-0.98-0.12s-0.86-0.12-1.23-0.12c-3.43,0-6.13,1.23-8.33,3.68
		c-2.08,2.45-3.68,6.25-4.53,11.27l-3.19,17.52c-1.1,0.12-2.08,0.25-3.19,0.25h-1.96L718.84,248.41z"/>
	<path class="st0" d="M759.03,209.2c0.61-0.12,1.23-0.12,1.96-0.25c0.74,0,1.35-0.12,1.96-0.12s1.23,0,1.84,0.12
		c0.61,0,1.23,0.12,1.84,0.25l-4.17,23.52c-0.24,1.59-0.49,3.06-0.49,4.41c0,2.08,0.49,3.43,1.47,4.41c0.98,0.86,2.21,1.35,3.8,1.35
		c1.35,0,2.7-0.37,4.04-1.23s2.57-2.08,3.8-3.68c1.23-1.59,2.21-3.68,3.19-6c0.98-2.45,1.72-5.15,2.21-8.21l2.57-14.33
		c0.61-0.12,1.23-0.12,1.96-0.25c0.74,0,1.35-0.12,1.96-0.12s1.23,0,1.84,0.12c0.74,0,1.23,0.12,1.84,0.25l-4.04,22.66
		c-0.61,3.06-0.98,5.64-1.35,7.84c-0.37,2.21-0.49,4.04-0.49,5.76c0,0.61,0,1.23,0,1.59c0,0.37,0,0.86,0.12,1.47
		c-0.61,0.12-1.1,0.12-1.84,0.25c-0.61,0-1.23,0.12-1.84,0.12c-0.49,0-1.1,0-1.72-0.12c-0.61,0-1.23-0.12-1.72-0.25
		c-0.25-0.61-0.25-1.84-0.25-3.55c0-0.98,0.12-1.84,0.25-2.7c0.12-0.86,0.25-1.72,0.37-2.57c-0.49,1.1-1.23,2.21-2.08,3.31
		c-0.86,1.1-1.96,2.21-3.19,3.06s-2.57,1.72-4.04,2.33c-1.47,0.61-3.06,0.86-4.78,0.86c-3.06,0-5.39-0.86-7.11-2.45
		c-1.72-1.59-2.57-4.17-2.57-7.6c0-0.74,0-1.59,0.12-2.57c0.12-0.98,0.25-1.84,0.37-2.7L759.03,209.2z"/>
	<path class="st0" d="M811.71,230.03c-0.74-0.25-1.59-0.74-2.45-1.1c-0.86-0.49-1.72-1.1-2.33-1.72s-1.35-1.59-1.84-2.7
		c-0.49-1.1-0.74-2.45-0.74-3.92c0-1.84,0.37-3.55,1.1-5.02c0.74-1.47,1.84-2.82,3.19-3.8c1.35-1.1,3.06-1.84,4.9-2.45
		c1.96-0.61,4.04-0.86,6.37-0.86c2.08,0,4.04,0.25,6,0.74c1.84,0.49,3.31,0.98,4.41,1.47c-0.37,1.96-1.1,3.92-2.21,5.76
		c-0.86-0.37-2.08-0.86-3.55-1.23c-1.47-0.49-3.19-0.61-4.9-0.61c-2.21,0-4.04,0.37-5.51,1.1c-1.47,0.74-2.21,2.08-2.21,3.92
		c0,1.23,0.37,2.21,0.98,2.94c0.74,0.74,1.96,1.59,3.68,2.21l1.72,0.74c0.98,0.49,1.96,0.98,3.06,1.47c1.1,0.49,1.96,1.1,2.82,1.84
		c0.86,0.74,1.47,1.59,2.08,2.7c0.49,1.1,0.86,2.33,0.86,3.8c0,2.45-0.49,4.53-1.35,6.25c-0.86,1.72-2.21,3.19-3.8,4.41
		c-1.59,1.1-3.43,1.96-5.51,2.57s-4.41,0.86-6.86,0.86c-2.08,0-4.04-0.12-6-0.49c-1.96-0.37-3.55-0.86-4.9-1.35
		c0.12-1.1,0.24-2.21,0.61-3.19c0.25-0.98,0.74-1.96,1.23-2.94c1.35,0.61,2.82,0.98,4.66,1.35c1.84,0.37,3.43,0.49,5.02,0.49
		c1.23,0,2.45-0.12,3.55-0.37s2.08-0.61,2.94-1.1c0.86-0.49,1.47-1.1,1.96-1.96c0.49-0.86,0.74-1.84,0.74-3.06
		c0-1.59-0.49-2.82-1.35-3.55c-0.86-0.74-2.21-1.47-3.92-2.21L811.71,230.03z"/>
	<path class="st0" d="M847.36,215.33h-6.25c0-0.98,0.12-1.96,0.24-2.94c0.12-0.98,0.49-1.96,0.86-3.06h6.13
		c0.24-1.35,0.49-2.7,0.74-4.04s0.24-2.82,0.24-4.29v-1.23c0.98-0.49,2.21-0.86,3.68-1.1c1.47-0.25,2.7-0.37,3.68-0.37
		c0,0.49,0.12,0.86,0.12,1.35c0,0.49,0,0.98,0,1.47c0,1.59-0.24,3.55-0.61,5.88l-0.49,2.33h9.8c0,1.1-0.12,2.21-0.24,3.06
		c-0.12,0.98-0.37,1.96-0.74,2.94h-9.8l-2.94,16.54c-0.24,1.23-0.49,2.33-0.73,3.68c-0.25,1.23-0.37,2.33-0.37,3.43
		c0,1.59,0.37,2.57,1.23,3.19c0.74,0.61,1.84,0.86,3.19,0.86c0.86,0,1.59-0.12,2.33-0.25c0.74-0.12,1.47-0.25,2.08-0.49
		c0.12,0.49,0.25,1.1,0.37,1.72c0.12,0.61,0.12,1.23,0.12,1.96v1.1c0,0.37,0,0.74-0.12,1.23c-0.61,0.25-1.47,0.37-2.57,0.61
		c-1.1,0.12-2.21,0.25-3.43,0.25c-1.59,0-3.06-0.12-4.53-0.37c-1.35-0.25-2.45-0.61-3.43-1.35c-0.98-0.61-1.72-1.47-2.21-2.57
		c-0.49-1.1-0.86-2.57-0.86-4.29c0-0.98,0.12-1.96,0.25-3.06c0.12-1.1,0.37-2.21,0.61-3.43L847.36,215.33z"/>
	<path class="st1" d="M741.39,113.16c0.49-0.12,0.61-0.12,0.86-0.12C742.49,112.67,741.26,113.03,741.39,113.16"/>
	<path class="st1" d="M741.39,113.16C740.77,113.4,741.75,113.52,741.39,113.16"/>
	<path class="st1" d="M736.48,114.38c-0.74,0.74-5.02,2.7-5.76,2.82c-0.98,0.25-1.84,1.1-2.08,1.1v-0.49
		c-2.94,0.74-8.33,4.66-10.17,5.27c0.24,0.25-1.1,0.98-0.61,0.37c-0.37,0.49-0.86,0.98-1.84,1.47l-0.12-0.25
		c-0.12,0.12-0.37,0.25-0.49,0.12c0.12-0.12,0.37-0.25,0.49-0.12c0.98-0.74,2.7-1.84,4.29-3.31c-1.1,0.98-3.55,2.57-4.9,3.19
		c0.74-0.61,2.21-1.47,2.82-2.08c-1.72,0.86-6.37,4.53-7.84,5.02c1.84-1.23,4.53-2.82,4.66-3.55c0.49-0.12,1.59-1.1,2.08-1.47
		c-0.37-0.25-0.86,0.61-1.23,0.61c-0.61,0-2.08,1.59-2.7,1.47c0.37-0.49,0.74-0.37,0.98-0.74c-0.86,0.25-2.21,1.72-3.19,1.96
		c0.86-0.74,2.7-1.72,3.8-2.7c-1.1,0.49-1.1,0.37-1.59,0.12c-1.23,0.74-1.23,0.86-2.33,1.59v0.12c0.37,0-0.12,0.61-0.37,0.86
		c-0.25,0.12-0.49,0-0.61-0.12c0.12-0.37,0.86-0.25,0.98-0.74c-0.12,0.12-0.24,0.12,0-0.12c1.72-1.47,4.53-2.94,6.37-4.66
		c-0.86,0.98,1.1-0.61,1.23-0.74c-0.24,0.12-0.61,0.12-0.24-0.12c0.37-0.25,0.74-0.49,0.86-0.37c-0.49,0.37-0.24,0.25-0.12,0.37
		c0.74-0.37,0.12-0.49,0.37-0.74c-1.84,1.1-4.04,2.82-5.64,3.55c0.12,0.12-0.98,0.86-0.98,0.61l0.98-0.61
		c-0.61,0.25,0.12-0.74-0.61-0.12c-0.25,0.25,0.12,0.12,0.12,0.25c-0.98,0.25-0.74,1.1-2.08,1.72c0.12,0.12,0.37,0-0.12,0.37
		c0-0.12-0.12-0.25,0.12-0.37l0.49-0.61c0.12-0.37-0.86,0-0.24-0.49l3.06-1.96c0.49-0.49-3.68,2.33-1.35,0.49l-0.12-0.25
		c-0.12,0.12-0.61,0.74-0.86,0.49c0.25-0.12,0.37-0.25,0.37-0.37c-0.37,0.12-0.98,0.74-1.1,0.61c1.1-0.98,2.45-1.59,4.17-2.82
		c-0.98,0-2.45,1.84-2.94,1.59c0.37-0.37,2.21-1.35,1.59-1.1c-0.49,0.25-1.47,1.23-1.47,0.74c1.59-1.1,1.96-1.35,3.55-2.45
		c0,0,0.12-0.25,0.25-0.12c0.98-0.86,1.47-0.61,1.96-1.47c0.61,0.12,1.35-0.74,1.84-1.23l-0.25-0.12c-3.06,2.33-6.98,4.78-11.27,7.6
		c-0.12-0.49-0.37,0.12-0.74,0.12c0,0.25,0.49-0.12,0.61,0l-1.59,1.1c-0.49,0.37-0.86,0.74-1.1,0.61l0.98-0.86
		c2.45-2.33-0.37,0.12-1.47,0.86c4.41-3.92-2.82,2.45-2.94,2.21c0-0.25,0.98-0.86,0.74-1.1l-0.49,0.25
		c-0.25,0.37-0.37,0.49-0.74,0.61c0.74,0.12-0.37,1.23-0.86,1.35c0.49-0.61,0.74-0.86,0.24-0.86c0.25-0.25,0.37-0.12,0.61-0.37
		c0-0.12,0.61-1.1,0.74-0.61c0.61-1.1,1.96-1.72,2.45-2.57c1.1-0.49,1.84-1.72,3.31-2.57c-0.12-0.49-1.1,0.37-1.47,0.37
		c1.23-0.74,1.96-1.59,2.7-1.72c0.12,0.49-1.1,0.49-0.86,0.98c1.84-1.35,4.29-2.57,4.9-3.43l0.37-0.25c0-0.12,0.25-0.37,0.25-0.61
		c-1.35,0.98-1.96,0.74-3.55,2.33c0.37,0.12,0.74-0.74,0.98-0.37c-0.12,0.37-1.35,0.98-1.23,0.37c-2.94,1.59-6.13,4.66-8.21,6
		c1.1-0.98,2.21-1.84,2.94-2.7c0-0.61,1.47-1.23,0.49-0.25c1.84-1.96,4.53-3.19,6.49-5.02c-0.37,0.61,1.1-0.37,1.23-0.86
		c-3.06,1.72-4.41,3.06-7.11,4.29c0.12,0,0.12,0,0.12,0.12l-0.61,0.37c0.49,0-0.49,0.86-0.49,0.61c0-0.12,0.25-0.37,0.49-0.61v-0.12
		c-1.59,1.47-3.06,2.7-3.92,3.55c0-0.74,1.96-1.59,2.08-2.21c-1.59,1.23-2.45,2.08-3.92,3.06c1.1-0.98,2.45-1.96,2.94-2.82
		c-2.08,1.72-3.92,3.06-5.39,4.17c1.96-1.96,4.53-3.55,5.76-5.39c1.59-0.86,3.06-2.45,5.27-3.55c-0.12-0.12,0.12-0.37,0-0.49
		c-4.78,3.31-8.09,6.13-11.76,9.56c-0.37,0.12-0.61,0.12-1.23,0.61l-0.61,0.86c0.25,0.12-0.98,0.98-0.98,0.86
		c-0.37,0.25-0.37,0.49-0.74,0.74c-0.12-0.12-0.12-0.25-0.37-0.12c-1.47,2.21-4.41,4.66-6.13,6.86l-0.12,0.25
		c0.24,0.25-0.74,0.74,0,0c-0.12-0.25-0.98,1.23-1.23,0.98c0.49-0.49,0.12-0.25,0-0.37c1.1-1.72,3.06-3.19,4.17-4.41
		c0,0.12-0.37,0.37-0.25,0.49c0.74-1.72,3.55-3.8,4.78-5.39c0,0.49,1.35-0.74,1.23-0.86c-1.1,0.86-1.72,0.98-2.45,1.35
		c-0.61,0.61-3.06,3.06-3.68,3.55c0.24-0.74,2.08-2.08,2.33-2.82l-7.96,8.45c-0.25,0.49,0.49,0,0,0.74c-0.61-0.74-2.57,2.7-3.19,2.7
		c0.61-0.98,2.08-2.08,2.33-2.7c-0.37,0.37-0.49,0.25-0.37,0c-2.21,2.33-4.66,5.51-5.76,7.35c1.47-1.59,2.33-3.06,3.8-4.66
		c-0.98,1.1-0.12,0.49-0.61,1.23c-0.86,0.74-2.08,2.7-3.55,4.41v-0.37c-0.61,0.49-1.1,1.47-0.98,1.59c-0.86,0.74-0.86,1.1-1.72,2.21
		c0.24,0.49,0.49-0.74,0.61-0.49c0.25,0.12-0.49,0.74-0.74,1.1l-0.12-0.49c-0.37,0.37-0.86,1.23-0.98,1.1
		c0.86-1.23-0.37,0.49-0.37,0l0.61-0.49l-0.12-0.12c-0.12,0.12-0.25,0.12-0.12-0.12l0.12,0.12l0.12-0.25c-0.25-0.25,0.74-0.74,0,0
		c0.25-0.12,1.59-1.72,1.59-2.08c-0.98,0.25-3.06,4.29-3.92,4.17c0.25-0.37,0.61-0.86,0.74-0.74l0.74-0.74
		c-0.12-0.12-0.25-0.12-0.12-0.37c0.49-0.37,1.35-1.84,0.86-0.61c0.74-0.86,1.47-1.72,1.1-1.72c0.37-0.25,0.74-0.37,0.86-0.98
		c0-1.23,2.7-2.57,2.94-4.04c1.1-0.86,2.33-2.33,3.06-3.8c0.98-0.25,1.47-2.33,2.7-2.7c-0.25,0.37-0.74,0.74-0.61,0.86
		c0.37-0.49,1.23-1.1,1.23-1.35c-1.1,1.1,1.23-2.21,1.23-1.35c0.37-0.12,0.37-0.25,0.49-0.61l-0.12-0.12
		c-0.12,0.12-0.37,0.37-0.37,0.25c0.25-0.25,0.86-1.1,0.98-0.86c0,0.12-0.25,0.37-0.49,0.61c0.86-0.37,1.1-2.08,1.1-1.1
		c3.19-3.92,4.66-5.88,8.45-8.45c-1.23,0.98-1.72,1.23-2.21,2.21c0.86-0.74,1.59-1.47,2.08-1.47c0.49-0.74,0.98-1.23,2.08-1.96
		c-0.12-0.61-1.47,1.23-1.72,1.1c1.35-1.59,2.94-2.08,3.43-3.19c-1.1,0.86-1.1,0.98-1.84,1.47c0.25-0.49,1.47-1.35,2.08-1.96
		c-5.76,4.17-11.76,10.17-16.17,15.31c-0.25-0.49-0.74,0.37-1.23,0.61c0.25-0.37,1.23-1.35,1.72-1.59
		c-0.49,0.25-0.74,0.98-0.24,0.49c0-0.37,1.72-1.47,1.84-2.21c-0.74,0.37-0.98,1.23-1.35,1.23c0.61-0.61,0.86-0.98,0.98-1.35
		c0.86-0.37,2.21-2.7,4.66-4.9c0.49-0.12,0.37,0.12,0.74,0c0.86-1.1,2.94-3.31,4.04-4.04c-0.12-0.12-0.49,0.12-0.25-0.25
		c0.37-0.49,3.06-2.33,2.45-2.33c-1.59,1.35-4.29,3.92-5.76,4.78c2.08-1.96,3.43-2.7,4.17-3.92c-0.25,0.25-0.49,0.37-0.25,0.12
		l0.25-0.12c0.12,0.37,2.21-1.59,1.72-1.23c-0.61,0.61-1.1,0.86-1.35,0.74c0.37-0.37,0.61-0.49,0.49-0.74
		c-0.74,0.37-1.59,1.47-2.08,1.59c0.12,0,0,0.12-0.12,0.25c0.25,0.12,0.49,0,0.37,0.37c-0.37,0.12-1.23,0.61-0.86,0.12
		c-1.1,0.86-2.94,2.08-3.31,3.06c-0.49-0.25-1.23,1.59-1.96,2.21c-0.61,0.37,0.12-0.74-0.61,0c-0.12,0.61-0.74,0.74-0.49,0.98
		c-0.98,0.61-1.84,2.33-3.19,3.19c-2.57,3.06-6.13,6.13-7.35,8.58c0.61-0.61,1.72-2.57,2.08-2.33c-0.25,0.37-4.66,5.27-3.68,4.78
		c-2.7,2.82-4.9,6.13-7.23,9.31c1.23-2.57,4.41-5.76,5.76-8.21c-2.08,2.57-4.53,5.88-6.13,8.21c2.45-4.41,5.76-7.47,9.07-12.25
		c0.12-0.12,1.23-1.23,0.61-1.23c-3.06,4.29-4.9,6.13-6.98,8.94c0.12-0.12,0.37-0.37,0.37-0.37c-0.12,0.12-0.37,0.37-0.37,0.37
		c-0.24,0.74-0.24,0-0.74,0.74c0.37,0.25-0.98,1.59-1.35,2.33c0.37-0.98-1.23,1.23-1.1,1.47c0.25-0.37,0.25,0.25,0.12,0.49
		c-1.23,1.84-1.96,2.94-2.57,3.68c0.25-0.98,2.08-2.94,2.33-3.8c-0.98,0.37-1.47,2.82-2.21,2.94c0.98-2.21,2.7-3.92,3.19-5.27
		c-0.61,0.86-1.23,1.96-2.21,3.06c0.37-0.74,0.98-1.47,0.74-1.72c-0.49,0.74-0.37,1.23-0.86,1.35c0.12,0.25-0.25,0.49-0.12,0.98
		l-0.49,0.25c-0.25,1.1-2.94,2.94-3.31,4.78c0.25-0.37,0.37-0.37,0.49-0.37c-0.37,0.61-0.49,0.37-0.74,0.74
		c0.12,0.12,0,0.37-0.25,0.74c-0.12-0.12,0.25-0.61,0.25-0.74l-0.12-0.12c-0.49,0.25-1.47,2.33-1.84,2.21
		c0.61-0.98,1.1-1.47,1.35-2.33c-0.49,0.49-0.74,0.49-1.23,1.1c0.86-1.1,0.86-1.35,1.72-2.7v0.37c0.49-0.37,0.49-0.98,0.98-1.23
		c0.12,0.37-1.35,1.72-0.98,1.96c1.72-2.7,3.68-4.66,4.66-7.11c-1.23,1.84-2.33,2.94-3.19,3.55c0.74-0.86,0.74-0.86,0.86-1.72
		c-2.7,3.19-4.04,5.76-6.37,8.82c-0.49,0.37,0-0.12-0.12-0.37c-0.74,0.98-0.86,1.72-1.59,2.45c1.23-2.45,2.7-4.17,3.19-6l-0.25,0.49
		c-0.37,0-0.61,0.74-0.37,0.49c-0.86,1.35-2.45,4.41-1.96,2.82c-1.47,2.45-2.33,4.04-4.17,6.49c0.25-0.49,0.98-1.35,0.49-1.23
		c-5.76,9.56-11.03,19.48-16.29,30.63c-3.43,7.47-6.62,15.44-9.56,23.28c-0.25,0.61-0.49,1.35-0.74,1.96
		c-0.74-0.74-1.47-1.47-2.08-2.21c-2.82-3.06-5.39-6.37-7.35-8.33c-1.59-1.59-3.06-2.82-4.53-4.41c-2.7-2.94-6.37-7.11-8.33-10.05
		c-1.84-1.47-4.17-6.13-6.98-8.58c-0.12,0.37-0.25,0.98-0.86,0.49c0.49,2.33-2.94,1.72-2.08,4.78c-0.24-0.49-0.49-0.98-0.98-1.59
		c-0.49,0.12,1.1,1.35,0.61,1.47c-1.1,0.74-1.59,0.86-1.1,2.82c-0.25-0.37-0.49-0.37-0.61-0.12c-0.12-0.37-0.61-0.86-0.86-0.98
		c0.74,0.98-0.25,0.37,0.37,1.35c-0.74-0.98-0.61,0.25-1.35-0.49c0.37,0.61,0.61,1.23,0.86,1.72c-0.37-0.12-0.86-0.49-1.47-1.47
		c-0.12,0.61-0.12,0.61,0.24,1.47l-0.98-0.12c0.25,0.49,0.12,0.86,0.25,1.47c-1.47-0.98-1.1,0.98-2.57-0.12
		c0,1.1-0.61,2.57-1.59,2.21c0.37,0.74-0.24,0.49,0.25,1.47c-0.86-0.98-0.98-0.49-0.98,0.12c-0.37-0.25-0.86-0.61-0.98-0.49
		c0,0.86,0.74,2.21-0.12,2.57c-0.49-0.74-0.61-0.74-1.1-1.23c0.37,3.19,3.31,7.6,7.35,12.37l6.25,7.11
		c4.66,5.39,9.31,11.64,14.46,17.27l3.8,3.92c3.19,3.06,4.78,5.64,10.41,9.8c3.31,1.72,7.23,4.17,13.97-0.25
		c6.62-6.37,3.68-4.9,5.27-6.74c1.23-2.45,2.08-4.41,2.7-6.25c8.82-24.62,20.7-46.68,32.47-65.79c3.31-4.9,6.98-12.01,11.03-16.78
		c2.45-3.06,5.02-6.98,7.47-9.56c0.37-0.37,0.74-0.49,1.23-1.1c0.12-0.74,1.59-1.47,2.08-2.45c0.37-0.98,2.7-2.45,2.82-3.68
		c1.1-0.74,1.84-1.59,2.7-2.57c-0.12,0.12-0.37,0.37-0.12,0c0.12-0.12,0.25-0.12,0.25-0.12c0.37-0.37,0.74-0.86,1.23-1.23v0.37
		c0.37-0.49,2.08-1.72,0.98-1.23c2.08-1.84,4.04-4.04,6.62-5.88c-0.61-0.25,1.1-1.23,0.25-0.37c0.86-0.25,0.61-0.86,1.1-0.86
		l0.37-0.37c0-0.12,0.49-0.49,0.61-0.37l-0.61,0.37c0.25,0.12,0.98-0.61,1.23-0.49c-0.12-0.12-0.24-0.25,0-0.37
		c0.25,0.37,1.1-1.1,0.98-0.37c0.74-0.37,0-0.49,0.74-0.86v0.37c0.74-0.25-0.12-0.37,0.37-0.61c0.49-0.12,0.37-0.37,0.86-0.37
		c1.1-1.1,2.82-1.96,3.06-2.82c0.25,0,0.12,0.12,0.12,0.25l2.57-1.72c-0.74,0.25-1.35,0.86-1.96,1.1c0-0.12-0.74-0.12,0-0.49
		c-0.24,0-1.35,0.61-1.35,0.86c0.24-0.25,0.37-0.12,0.49,0c-0.61,0.25-1.35,0.49-2.21,1.1c0.12,0.12,0.12,0.25,0.37,0.12
		c0,0,0.12-0.25,0.12-0.12l-0.12,0.12c0,0.61-1.47,0.74-1.96,0.98c0.49-0.37,0.86-0.61,1.35-0.74c0-0.12,0-0.25,0.25-0.49
		c-0.12,0-0.37,0-0.12-0.25l2.45-1.59c-0.37-0.25-1.72,0.74-0.61-0.25c-0.74,0.49-0.98,0.86-1.23,1.1
		c-0.49-0.61-1.35,0.98-2.45,1.23c-0.12,0.98-1.35,1.35-2.7,2.08c-0.25-0.25,1.23-0.61,0.98-0.98c-0.25,0.12-0.25,0-0.12-0.25
		l-0.49,0.12c0.25,0.25-0.49,0.61-0.74,0.86c0-0.12,0.25-0.61-0.25-0.37c-1.1,0.74-0.74,0.74-1.23,1.47
		c-0.37,0.25-0.37-0.25-0.61-0.12c-0.74,0.61-0.86,0.49-0.74,0.86c-0.74,0.61-0.74,0.61-0.49,0.12c-0.86,0.61-0.61,0.86-0.74,0.98
		c-0.98,0.61-1.35,0.86-1.84,0.98c1.35-1.47,3.92-3.43,4.9-4.17l-0.98,0.25c0.86-0.49,2.33-1.72,2.94-2.21
		c0.98-0.86,2.45-1.47,3.55-2.57c-0.12-0.25,0.74-0.86,1.1-0.86c-0.12-0.12,0-0.25,0.12-0.37c0.61-0.74,1.47-1.1,2.33-1.47
		c0.12-0.86,1.35-1.23,2.08-1.47c1.72-0.61,3.19-1.72,5.02-2.7c3.19-1.59,6.62-3.55,9.8-4.29
		C739.43,113.4,737.59,114.26,736.48,114.38 M712.84,123.69c-0.25,0.12-0.25,0-0.37,0C712.72,123.57,712.72,123.69,712.84,123.69
		 M712.11,124.06C712.96,123.57,711.37,124.67,712.11,124.06 M714.43,121.73C715.29,121.36,713.7,122.34,714.43,121.73
		 M712.11,123.08l0.49-0.12C712.6,123.2,711.74,123.57,712.11,123.08 M710.15,123.94C711,123.45,709.41,124.55,710.15,123.94
		 M711.49,122.1C711.37,121.73,712.47,121.61,711.49,122.1l0.49-0.12c0,0.12,0,0.12-0.12,0.25l-0.37,0.25
		C711.49,122.34,711.25,122.22,711.49,122.1 M711.49,120.63C712.35,120.26,710.76,121.24,711.49,120.63 M711.25,121.61
		C712.11,121.24,710.51,122.22,711.25,121.61 M710.76,121.24C709.16,122.1,711.49,120.75,710.76,121.24 M710.15,121.73
		C711,121.36,708.92,122.47,710.15,121.73 M710.76,123.2c0.12,0.12-1.23,0.98-1.1,0.61C710.02,123.69,710.39,123.57,710.76,123.2
		 M712.35,117.2C713.21,116.95,711.37,118.06,712.35,117.2 M701.45,124.06c-0.12,0.12-0.25,0-0.37,0
		C701.32,123.94,701.32,124.06,701.45,124.06 M701.45,125.9C702.18,125.41,699.98,127,701.45,125.9 M691.77,129.33
		c0.61-0.49-0.37,0.61-0.61,0.86C690.54,130.68,691.52,129.57,691.77,129.33 M681.48,138.88
		C682.21,138.15,680.37,139.86,681.48,138.88 M680.62,139.86C681.35,139.13,680.01,140.72,680.62,139.86 M692.87,125.28
		C693.61,124.67,692.14,126.02,692.87,125.28 M691.77,126.14c0,0.12-0.12,0.37-0.49,0.61C691.4,126.63,691.52,126.39,691.77,126.14
		 M689.2,128.59C690.05,127.98,688.58,129.45,689.2,128.59 M688.46,129.33l0.37-0.37c0.25,0.12-0.12,0.37-0.37,0.74V129.33z
		 M686.13,132.15C686.87,131.41,685.52,132.88,686.13,132.15 M684.3,133.98c0.61-0.49-0.37,0.61-0.61,0.86
		C682.95,135.33,684.05,134.23,684.3,133.98 M663.1,154.93C663.84,154.07,662.61,155.91,663.1,154.93 M662.49,155.67
		C662.98,154.93,661.26,157.26,662.49,155.67 M661.02,156.65v0.37c0.12-0.25,0.25-0.49,0.25-0.49c0.61-0.86,0,0.74-0.25,0.49
		c-0.49,0.37-0.37,0.61-0.86,1.35C660.28,157.87,660.53,157.01,661.02,156.65 M659.55,159.1
		C658.57,160.45,660.16,158.24,659.55,159.1 M659.43,158.73c0.12,0.25-0.74,1.1-0.25,1.1l-0.49,0.61
		C658.57,159.96,658.81,159.59,659.43,158.73 M606.5,205.41C605.4,204.67,605.77,204.06,606.5,205.41 M645.95,177.6
		c0.12,0.12-0.49,1.1-0.24,1.1C645.21,179.43,645.58,178.21,645.95,177.6 M646.44,179.8c-0.37,0.12,0.12-0.61,0.37-1.1
		C646.93,178.82,646.81,179.31,646.44,179.8 M649.26,172.08c-0.49,0.74,0.25-0.74,0.49-0.98
		C650.24,170.37,649.5,171.72,649.26,172.08 M651.09,170.74C651.71,169.88,650.6,171.72,651.09,170.74 M653.18,168.29
		c-0.49,0.61-0.86,1.23-1.35,1.72c-0.25-0.12,0.25-1.72,0.61-1.47c0.12-0.25,0.12-0.37,0.37-0.74
		C653.18,167.55,653.05,167.8,653.18,168.29 M656.36,163.39C656.98,162.77,656,164.49,656.36,163.39 M654.03,167.92
		C654.65,167.06,653.54,168.9,654.03,167.92 M653.67,167.31c-0.25,0.25,0.37-0.86-0.25-0.49l0.37-0.74
		c-0.25-0.12,0.49-0.86,0.49-0.98c0.12,0.12-0.25,0.74,0,0.37c0,0.37-0.25,0.86,0.24,0.12
		C654.65,166.33,654.03,166.69,653.67,167.31 M655.14,166.08C655.75,165.22,654.77,167.06,655.14,166.08 M656,163.39
		c0.25,0-0.61,1.35-0.61,0.86C655.63,163.88,655.75,163.88,656,163.39 M656,165.47C656.61,164.61,655.14,166.69,656,165.47
		 M656.12,166.2c-0.12-0.12,0.24-0.61,0.49-0.98C656.49,165.47,656.36,165.96,656.12,166.2 M656.98,163.51
		C656.12,165.35,656.36,164.12,656.98,163.51C657.1,163.26,657.22,163.51,656.98,163.51 M657.34,163.39
		C657.96,162.65,656.85,164.37,657.34,163.39 M657.34,163.14c0.12-0.49,0.12-0.98-0.37,0c-0.12,0,0-0.49-0.12-0.12
		c0.37-0.86,0.37-1.35,1.1-2.21l-0.37,1.1c0.12,0.49,0.49-0.12,0.86-0.74C658.57,161.67,657.71,162.16,657.34,163.14 M659.3,161.67
		l0.25-0.49c0,0.12,0.12,0,0.25-0.12C660.04,161.06,659.3,162.16,659.3,161.67 M660.65,161.06
		C661.39,160.2,660.16,161.92,660.65,161.06 M659.67,162.16c-0.37,0.37,0-0.25,0.25-0.49c0.12-0.25,0-0.25-0.12-0.12
		c0-0.49,0.74-0.74,0.98-1.59C661.02,160.45,660.04,161.43,659.67,162.16 M663.47,158.61c0,0.25-0.25,0.37-0.49,0.61
		C662.98,158.98,663.22,158.85,663.47,158.61 M663.22,160.69C663.84,159.83,662.73,161.55,663.22,160.69 M661.88,158
		C662.49,157.63,661.14,158.49,661.88,158 M663.22,162.65c-0.12-0.25,0.74-1.1,0.98-1.59C663.96,161.79,663.71,161.92,663.22,162.65
		 M672.9,148.56C673.64,147.83,672.41,149.42,672.9,148.56 M673.02,147.58C673.76,146.85,672.41,148.44,673.02,147.58
		 M673.51,146.97C674.25,146.23,672.9,147.83,673.51,146.97 M674,146.36C674.74,145.62,673.39,147.21,674,146.36 M675.11,144.89
		C675.84,144.15,674.49,145.74,675.11,144.89 M676.58,143.05C677.31,142.31,675.96,143.91,676.58,143.05 M677.8,141.33
		C678.54,140.72,677.31,142.19,677.8,141.33 M678.29,141.21C679.03,140.48,677.8,142.07,678.29,141.21 M679.88,139.5
		C680.62,138.76,679.39,140.35,679.88,139.5 M682.09,135.82c-2.08,2.33-3.31,3.92-4.9,5.76c-0.12-0.12,0.12-0.49-0.25-0.25
		c-0.25-0.25,1.23-1.35,0.98-1.59c0.37-0.37,0.12,0.12,0.24,0.25c0.74-0.86,0.98-1.47,1.1-1.84c0.37-0.37,0.49-0.25,0.37,0
		C680.5,137.41,681.48,136.19,682.09,135.82 M676.58,142.31c-0.37,0.37-0.49,0.12-0.98,0.86c-0.25-0.37,0.74-0.74,0.61-1.23
		C676.82,141.46,676.21,142.44,676.58,142.31 M674.13,144.27c1.47-2.21,3.8-5.02,4.9-6.49
		C678.17,139.37,675.47,142.56,674.13,144.27 M680.25,137.17C680.99,136.68,679.76,138.15,680.25,137.17 M692.5,123.57
		c-0.37,0.61-1.72,1.59-2.57,2.33C690.3,125.16,691.77,124.18,692.5,123.57 M689.93,127C690.67,126.39,689.32,127.86,689.93,127
		 M687.85,127.73c0,0.12-0.12,0.37-0.37,0.74C687.48,128.35,687.48,128.1,687.85,127.73 M686.99,128.84
		C687.85,128.1,686.38,129.69,686.99,128.84 M685.77,130.19c0.37,0,0.61-0.98,0.86-0.61c0.74-0.61,2.7-3.31,3.31-3.19
		c-1.35,1.1-2.57,2.94-4.66,4.9C685.03,131.17,686.26,130.31,685.77,130.19 M685.03,130.92c0.12,0-0.86,1.23-0.37,1.1
		c-3.06,1.96-8.82,9.31-11.15,12.5C677.68,138.52,680.37,135.94,685.03,130.92 M673.88,144.4c0.12,0.12-0.12,0.49-0.49,0.98
		C672.9,145.38,673.64,144.76,673.88,144.4 M672.53,145.38c0,0.12-0.25,0.49-0.12,0.61C671.8,146.36,672.04,145.62,672.53,145.38
		 M671.8,146.48c0.25-0.25,0.25,0,0.37,0l0.49-0.61c0.25,0-0.74,1.1-0.98,1.59C671.55,147.34,672.04,146.72,671.8,146.48
		 M671.31,148.44C672.04,147.7,670.33,149.66,671.31,148.44 M670.08,150.15C670.82,149.42,669.47,151.01,670.08,150.15
		 M669.72,149.91C670.33,149.54,668.98,150.4,669.72,149.91 M669.1,151.38C669.84,150.64,668.61,152.36,669.1,151.38 M667.39,153.34
		c-0.12,0.25-0.25,0.12-0.37,0.12C667.27,153.22,667.27,153.34,667.39,153.34 M664.33,156.52c-0.37,0.25,1.23-1.96,1.72-2.7
		C666.41,153.58,664.69,155.79,664.33,156.52 M667.27,154.69c0.12,0.25-0.74,1.1-0.98,1.59
		C666.41,155.54,666.65,155.54,667.27,154.69 M667.02,157.14C667.76,156.4,666.53,158,667.02,157.14 M666.78,158.24
		c0.12-0.25,0.25-0.12,0.25-0.12C667.02,158.36,666.9,158.24,666.78,158.24 M667.14,157.5c0.37-0.74,0.61-0.61,0.86-0.98
		C668.12,156.77,667.14,158.24,667.14,157.5 M671.92,148.32c-0.37-0.74,2.7-3.55,3.43-5.02c0.12,0.12-0.12,0.49-0.49,0.98
		c0.74-0.37,0.98-1.1,1.96-2.08c-0.12-0.12-0.12-0.25,0.12-0.61l0.12,0.12l-0.37,0.37c-2.57,3.92-6,7.35-9.19,12.01
		C669.1,151.87,670.82,149.3,671.92,148.32 M668.25,155.42C668.25,155.3,668.25,155.3,668.25,155.42
		C668.12,155.54,667.51,156.28,668.25,155.42 M668.74,154.44c-0.12-0.12,0.61-0.98,0.74-1.35
		C669.72,153.34,668.98,154.32,668.74,154.44 M671.06,153.46c-0.12,0.12-0.49,0.12-0.37,0.37c-0.61,0.61,0.12-0.61,0.37-0.98
		C671.43,152.85,671.06,153.34,671.06,153.46 M671.06,152.11c-0.61,0.61-0.37,1.47-0.86,1.23c-0.12,0.86-0.61,0-0.49,0.61
		c-0.74,0.74,0.49-1.47,0.49-0.61c0.12-0.37,0-0.37,0-0.61l1.72-2.33c0.12,0.12-0.61,1.23-0.12,0.61
		C671.55,151.62,671.43,152.48,671.06,152.11 M688.95,131.53c0.37,0.25-1.1,1.1-0.12,0.98l-1.47,1.1c-0.37,0.37-0.12,0.61-0.25,0.86
		c-0.37,0.25-0.12-0.12-0.25-0.25c-0.61,0.74-0.49,0.61-1.23,1.35c1.1-0.49-1.1,0.86-1.35,1.23
		C686.26,134.47,686.87,133.86,688.95,131.53 M683.93,137.41C684.79,136.68,682.83,138.52,683.93,137.41 M683.19,138.15
		c-0.12,0.12-0.24,0-0.37,0C683.07,137.9,683.07,138.03,683.19,138.15 M682.58,139.01C683.44,138.39,681.97,139.86,682.58,139.01
		 M682.21,138.88c-0.25,0.37,0,0.49-0.49,0.98C681.48,139.74,681.72,139.37,682.21,138.88 M678.29,144.4
		C678.54,143.54,679.52,143.29,678.29,144.4 M678.17,144.27c-0.24,0.25-0.37,0.37-0.49,0.25
		C677.92,144.03,678.05,144.15,678.17,144.27 M676.09,146.6c0-0.37,0.86-1.35,0.98-0.86C676.58,146.36,676.33,146.36,676.09,146.6
		l0.12,0.12c-0.12,0.12-0.12,0.25-0.12,0.25c-0.49,0-1.1,1.59-1.72,1.59C675.23,147.7,675.23,147.46,676.09,146.6 M676.82,146.11
		C677.56,145.5,676.33,146.97,676.82,146.11 M672.66,152.73C672.17,152.6,673.27,151.75,672.66,152.73 M672.29,151.5
		c-0.61,0.49,0.49-0.74,0.74-1.1C673.64,149.91,672.53,151.13,672.29,151.5 M674.37,150.28C674,151.26,672.9,151.87,674.37,150.28
		C674.37,149.79,675.35,149.17,674.37,150.28 M675.72,148.32C674.49,149.79,676.33,147.7,675.72,148.32 M677.92,145.5
		c0.12-0.12,0.12-0.25,0.12-0.25c0.74-0.37-1.23,1.84-1.72,2.57C676.82,146.85,677.43,145.99,677.92,145.5 M677.07,147.46
		l-0.12-0.12l0.37-0.37l0.12,0.12L677.07,147.46z M677.68,146.23C678.29,145.5,676.7,147.46,677.68,146.23 M679.64,143.91
		c-0.37,0.37-0.49,0.12-0.98,0.86c0.86-0.74-0.12,0.49-0.37,0.98c-0.37-0.12,0.74-0.98,0.12-0.98l1.23-1.59
		C680.01,143.29,679.52,143.78,679.64,143.91 M679.52,142.8C679.64,143.29,678.66,143.78,679.52,142.8
		c-0.12-0.12-0.49,0.49-0.61,0.12c0.61-0.86,1.35-2.21,1.96-2.33c0.61-0.86,0.25,0.25,0,0l-1.59,2.08
		C679.64,142.44,680.01,142.07,679.52,142.8 M683.32,139.74c-1.35,0.37-2.57,3.19-3.31,3.19c1.23-1.72,2.57-2.94,4.17-4.9
		c0.25,0.25-0.37,0.74-0.12,0.98C683.81,139.01,682.95,139.62,683.32,139.74 M684.3,138.15
		C685.03,137.54,683.68,139.01,684.3,138.15 M684.79,137.54l0.25-0.12c0.12,0.49-0.37,0.25-0.61,0.49c0-0.12,0.37-0.49,0.61-0.86
		C685.4,136.8,685.03,137.29,684.79,137.54 M691.65,131.9l0.12,0.12l-0.37,0.37l-0.12-0.12L691.65,131.9z M689.56,136.07
		C690.18,135.58,689.07,136.92,689.56,136.07 M691.16,134.47l-0.12-0.12l0.37-0.37l0.12,0.12L691.16,134.47z M691.89,132.15
		C692.38,131.78,690.18,133.62,691.89,132.15 M691.77,131.29c-0.61,0.49,0.49-0.74,0.86-0.98
		C693.24,129.82,692.01,131.04,691.77,131.29 M720.56,126.14c0.24,0.12-0.86,0.49-0.61,0.74
		C719.21,127.12,720.19,126.39,720.56,126.14 M718.11,128.59C717.62,128.22,718.97,128.1,718.11,128.59
		C717.99,128.96,717.01,129.08,718.11,128.59 M716.15,129.82C717.01,129.45,715.54,130.31,716.15,129.82 M714.43,130.31
		C715.17,129.94,713.7,130.92,714.43,130.31 M711.86,133C712.47,132.64,711.37,133.74,711.86,133 M712.84,124.67
		C713.7,124.3,711.62,125.41,712.84,124.67 M712.47,125.9C712.35,125.53,713.33,125.41,712.47,125.9
		C712.35,126.26,711.37,126.39,712.47,125.9 M710.88,126.14l0.37-0.25c0.24,0.12-0.12,0.37-0.49,0.61L710.88,126.14z M710.76,125.77
		c0.25,0.25-1.1,0.98-1.23,1.1C709.53,126.51,710.39,126.02,710.76,125.77 M710.02,127.73
		C710.76,127.24,708.92,128.59,710.02,127.73 M708.31,126.02C709.16,125.53,707.69,126.75,708.31,126.02 M707.94,123.57
		c0.25,0.12-0.74,0.86-0.61,0.37l0.37-0.37H707.94z M707.33,123.57C708.18,123.08,706.71,124.3,707.33,123.57 M707.69,125.41
		C708.43,124.92,706.96,126.14,707.69,125.41 M706.59,124.67C707.45,124.18,705.98,125.41,706.59,124.67 M707.08,127.98
		c0.86-0.86,1.59-1.72,2.7-2.33c-0.98,0.86-2.21,2.08-3.43,3.06c0-0.12,0.37-0.37,0.24-0.49s-0.37,0.25-0.61,0.37
		C705.98,128.22,707.08,127.49,707.08,127.98 M709.04,126.51C710.02,125.9,707.08,127.86,709.04,126.51 M707.33,130.43
		c0-0.37,0.61-0.74,1.1-1.23v0.12C708.43,129.69,707.82,130.06,707.33,130.43 M708.31,130.55
		C709.04,130.06,707.57,131.29,708.31,130.55 M707.57,134.84C708.31,134.23,706.47,135.58,707.57,134.84 M706.22,129.69
		C706.84,129.2,704.75,130.68,706.22,129.69 M707.33,134.6c0.49-0.12,0.25-0.37,0.74-0.49C708.31,134.11,707.2,135.09,707.33,134.6
		 M707.45,129.82c0.12,0.25-0.12,0.49-0.61,0.74C706.47,130.55,707.2,130.06,707.45,129.82 M706.96,129.57
		C707.69,129.2,706.47,130.31,706.96,129.57 M707.33,128.71c0.12-0.12,0.25,0,0.37,0C707.45,128.84,707.33,128.71,707.33,128.71
		 M705.37,130.06c0.12-0.49,2.57-2.21,3.06-2.7C707.45,128.35,705.73,129.82,705.37,130.06 M704.63,127.37l-0.25,0.12l-0.12-0.12
		c0.25-0.25,0.37-0.25,0.61-0.37C704.88,127.12,704.63,127.37,704.63,127.37 M705,127.49c0.12,0.25-0.37,0.61-0.61,0.74
		C704.26,127.98,704.75,127.73,705,127.49 M704.02,126.88C704.88,126.51,703.41,127.49,704.02,126.88 M703.77,127.86
		C704.63,127.37,703.16,128.59,703.77,127.86 M704.26,128.96c0.24,0.12-0.86,0.61-0.61,0.86c-0.37,0.37-0.37-0.25-0.49-0.25
		C703.53,129.2,703.9,128.96,704.26,128.96 M706.1,128.71c-0.37,0.74-0.86,0.86-1.72,1.59C704.51,129.94,705.61,129.2,706.1,128.71
		 M705.98,127.73c0,0.12-0.49,0.49-0.37,0.61l-0.25,0.12l-0.12-0.12C705.61,127.86,705.73,127.86,705.98,127.73 M705.98,127.24
		C705.49,128.1,704.88,127.86,705.98,127.24 M705.49,131.9C705.49,131.9,705.24,132.15,705.49,131.9
		C705.12,131.53,706.1,131.17,705.49,131.9 M705.49,124.3c0,0.49-0.74,0.74-1.1,1.35l0.12-0.37c-1.23,0.74-0.37,0.98-1.47,1.72
		C702.55,126.51,704.51,125.28,705.49,124.3 M702.67,127c-0.24,0.61-0.61,0.74-1.1,1.1C701.81,127.61,702.06,127.12,702.67,127
		 M702.79,129.82c0.12,0.25-0.25,0.74-0.61,1.1C701.94,130.43,702.18,130.43,702.79,129.82 M701.81,129.57
		C700.59,130.43,702.55,129.08,701.81,129.57 M701.94,127c0.12,0.12,0,0.25-0.25,0.49l-0.24,0.12
		C701.45,127.37,701.69,127.12,701.94,127 M700.83,128.35C701.69,127.86,700.22,129.08,700.83,128.35 M700.1,128.22
		c0-0.12,0.12-0.37,0.49-0.61C700.59,127.73,700.47,127.98,700.1,128.22 M701.08,133.13l-0.37,0.37l-0.12-0.12l0.37-0.37
		L701.08,133.13z M700.71,127.24c-0.37,0.37-0.74,0.61-0.98,0.74c-0.24,0.37,0.37,0.37-0.24,0.86v-0.37l-1.35,1.1
		c-0.25-0.49,1.1-0.98,1.59-1.59C699.49,127.86,700.71,126.75,700.71,127.24 M698.75,129.2C698.63,129.2,699,128.96,698.75,129.2
		C699.24,129.57,698.26,129.82,698.75,129.2 M699,134.72C699.85,134.23,698.38,135.33,699,134.72 M697.89,129.08
		C698.75,128.47,697.28,129.82,697.89,129.08 M698.63,125.65c0.37-0.25,0,0.25-0.37,0.37c0.12,0.12,0.12,0.25,0.37,0.12
		c-0.12,0.49-0.61,0.12-1.23,0.86C697.28,126.75,697.89,126.26,698.63,125.65 M693.61,129.57c0.12-0.61,2.33-2.33,3.06-2.7
		l0.12,0.12c0.25-0.25,0.61-0.49,0.49-0.61c0.86-0.61-0.37,0.86-0.49,0.61C695.81,127.86,694.22,129.2,693.61,129.57 M697.65,129.57
		c0.12,0.25-0.37,0.61-0.74,0.98C696.79,130.31,697.28,129.94,697.65,129.57 M697.16,127.12
		C696.91,127.98,694.59,129.2,697.16,127.12 M697.89,130.06c0,0.12-0.37,0.49-0.74,0.74C697.04,130.55,697.53,130.19,697.89,130.06
		 M695.08,132.15l-0.12-0.12l0.61-0.37C695.57,131.78,695.32,132.02,695.08,132.15 M695.08,128.96
		C695.93,128.47,694.34,129.69,695.08,128.96 M696.18,128.35C694.34,129.57,696.79,127.86,696.18,128.35 M696.67,128.96
		C694.83,130.31,697.28,128.59,696.67,128.96 M697.77,134.35l0.12,0.12l-0.37,0.37l-0.12-0.12L697.77,134.35z M697.77,136.68
		c0.49-1.23,1.84-1.59,2.94-2.82C699.73,135.09,698.63,135.94,697.77,136.68 M700.22,134.84
		C701.08,134.35,699.61,135.58,700.22,134.84 M700.96,135.7C701.81,135.33,700.47,136.43,700.96,135.7 M701.32,133.86
		c-0.25-0.25-0.37-0.12-0.37-0.49c0.25-0.25,1.1-0.37,0.74-0.61c0.37-0.25,0.37,0.12,0.86-0.49c0,0,0.12-0.25,0.12-0.12l-0.12,0.12
		C702.06,132.88,701.57,133.49,701.32,133.86 M702.92,134.11l0.49-0.49C704.02,133.62,702.92,134.6,702.92,134.11 M703.77,137.9
		c0.25-0.12,0.25,0,0.12,0.12C703.65,138.27,703.9,137.9,703.77,137.9 M704.14,138.03C705,137.41,703.53,138.64,704.14,138.03
		 M703.16,128.96C703.9,128.47,702.43,129.69,703.16,128.96 M705,137.41C704.88,138.03,704.14,137.66,705,137.41
		C704.88,137.41,705.12,137.17,705,137.41 M704.39,131.9C703.16,132.76,705.12,131.41,704.39,131.9 M705.24,137.17
		c0.12-0.12,0.25,0,0.25,0C705.37,137.29,705.37,137.17,705.24,137.17 M706.71,136.43L706.71,136.43c-0.37,0.12-0.49,0.12-0.86,0.37
		c0.12-0.37,0-0.61-0.49,0c-0.12-0.12,0.61-0.61,0.86-0.86c-0.12,0.37,0.12,0.37,0.61,0c0.37-0.49-0.49,0-0.12-0.49
		c0.86-0.74-0.12,0.98,0.74,0.25C707.45,135.82,706.96,136.19,706.71,136.43 M707.82,135.21c0.12-0.12,0.25,0,0.25,0
		C707.94,135.33,707.94,135.21,707.82,135.21 M708.92,134.35C709.65,133.86,707.82,135.21,708.92,134.35 M708.31,134.6
		c-0.61,0.37,0.61-0.61,0.86-0.86C709.78,133.49,708.55,134.47,708.31,134.6 M710.51,133.13
		C711.37,132.64,709.9,133.74,710.51,133.13 M709.78,133.98C708.67,134.72,710.51,133.37,709.78,133.98 M709.29,133.25
		c-0.25-0.49,1.59-1.35,1.72-1.96C711.37,131.53,710.15,132.64,709.29,133.25 M710.39,126.51
		C711.37,126.26,709.78,127.12,710.39,126.51 M713.33,125.9C713.45,126.39,712.11,126.63,713.33,125.9 M711.37,127.37
		C711.49,127.37,711.13,127.49,711.37,127.37C711.37,127.24,711.74,127.12,711.37,127.37 M712.23,130.55
		c-0.12-0.25,0.49-0.61,0.98-0.98C713.58,129.82,712.47,130.19,712.23,130.55 M713.33,126.88L713.33,126.88l-0.49,0.12
		c-0.12,0.25-0.49,0.49-0.86,0.74c-0.12-0.25,0.37-0.49,0.86-0.86V127c0.12-0.12,0.12-0.25,0.12-0.37c0.25-0.12,0.49-0.12,0.86-0.37
		C713.94,126.39,713.82,126.63,713.33,126.88 M714.31,125.28C712.47,126.26,714.92,125.04,714.31,125.28 M715.05,125.16
		c-0.12,0.12-0.25,0.12-0.25,0.12C715.05,125.28,715.54,124.92,715.05,125.16 M715.41,127.61l0.37-0.25h0.24
		C716.15,127.37,715.17,127.98,715.41,127.61 M715.78,125.16c0.25-0.12,0.25,0,0.25,0.12C715.9,125.28,715.9,125.16,715.78,125.16
		 M717.5,126.14C718.11,126.26,716.76,126.39,717.5,126.14 M718.11,125.9c0.25-0.49,0.61-0.86,1.59-1.47
		C719.09,125.04,719.09,125.41,718.11,125.9 M724.97,119.89C725.7,119.65,723.38,120.38,724.97,119.89"/>
	<path class="st1" d="M736.12,117.93C734.89,118.42,736.97,117.69,736.12,117.93"/>
	<path class="st1" d="M736.24,118.18C735.5,118.67,737.1,117.93,736.24,118.18"/>
	<path class="st1" d="M733.18,115.12C733.91,114.87,731.58,115.73,733.18,115.12"/>
	<path class="st1" d="M733.05,115.48C731.83,115.97,733.91,115.24,733.05,115.48"/>
	<path class="st1" d="M734.16,119.16C733.54,119.77,734.89,118.91,734.16,119.16"/>
	<path class="st1" d="M733.91,119.65C733.18,120.14,734.77,119.4,733.91,119.65"/>
	<path class="st1" d="M731.95,115.36C731.22,115.85,732.93,114.99,731.95,115.36"/>
	<path class="st1" d="M731.95,116.46C731.22,117.08,732.81,116.22,731.95,116.46"/>
	<path class="st1" d="M732.69,119.89C731.83,120.38,733.42,119.65,732.69,119.89"/>
	<path class="st1" d="M731.09,116.71C730.36,117.2,731.95,116.46,731.09,116.71"/>
	<path class="st1" d="M731.95,119.53C730.73,120.02,732.81,119.16,731.95,119.53"/>
	<path class="st1" d="M730.24,115.73C729.38,116.34,731.09,115.48,730.24,115.73"/>
	<path class="st1" d="M730.73,117.2C731.09,116.95,730.73,117.08,730.73,117.2"/>
	<path class="st1" d="M730.24,117.08c-0.74,0.25-0.49,0.25-1.23,0.61C729.01,117.81,730.36,117.2,730.24,117.08"/>
	<path class="st1" d="M730.48,120.63C731.34,120.38,729.26,121.12,730.48,120.63"/>
	<path class="st1" d="M728.52,116.59c-0.37,0.12-1.96,0.86-1.23,0.74C727.66,117.08,729.26,116.46,728.52,116.59"/>
	<path class="st1" d="M728.77,117.81l0.24-0.12C728.89,117.57,728.77,117.69,728.77,117.81"/>
	<path class="st1" d="M727.05,116.71c0.25-0.12,1.47-0.74,0.86-0.49C727.54,116.34,726.32,116.83,727.05,116.71"/>
	<path class="st1" d="M727.05,115.48C728.15,115.12,724.97,116.22,727.05,115.48"/>
	<path class="st1" d="M727.66,117.32C726.32,117.81,728.52,117.08,727.66,117.32"/>
	<path class="st1" d="M729.38,121.24C728.52,121.73,730.11,121,729.38,121.24"/>
	<path class="st1" d="M729.26,121.61C728.52,122.1,730.11,121.36,729.26,121.61"/>
	<polygon class="st1" points="727.17,118.18 727.66,117.93 727.54,117.69 727.17,117.93 	"/>
	<path class="st1" d="M724.11,118.06c1.1-0.49,1.72-0.61,2.33-1.23C725.7,117.2,724.36,117.57,724.11,118.06"/>
	<path class="st1" d="M727.79,121.61C728.15,121.73,728.77,121,727.79,121.61"/>
	<path class="st1" d="M728.28,121.73C726.44,122.34,728.89,121.49,728.28,121.73"/>
	<path class="st1" d="M725.58,116.22C724.85,116.71,726.44,115.97,725.58,116.22"/>
	<path class="st1" d="M728.03,122.22C726.81,122.71,728.89,121.85,728.03,122.22"/>
	<path class="st1" d="M727.79,121.61C727.3,121.36,727.3,122.22,727.79,121.61"/>
	<path class="st1" d="M723.5,114.01C724.48,113.77,723.5,113.77,723.5,114.01"/>
	<path class="st1" d="M724.48,115.36L724.48,115.36c-0.25,0.12-0.37,0.12-0.37,0.12C724.23,115.36,724.36,115.36,724.48,115.36"/>
	<path class="st1" d="M727.91,122.96C727.17,123.45,728.77,122.71,727.91,122.96"/>
	<path class="st1" d="M724.6,116.46C723.87,116.95,725.58,116.22,724.6,116.46"/>
	<path class="st1" d="M726.81,121.24c-0.25,0.12-1.72,0.74-0.98,0.61C726.19,121.61,727.54,121,726.81,121.24"/>
	<path class="st1" d="M723.5,114.01C723.25,114.26,723.62,114.14,723.5,114.01"/>
	<path class="st1" d="M725.34,118.55C724.6,119.04,726.19,118.3,725.34,118.55"/>
	<path class="st1" d="M727.05,122.22C726.32,122.71,727.91,121.98,727.05,122.22"/>
	<path class="st1" d="M723.87,115.97C724.23,115.73,723.87,115.85,723.87,115.97"/>
	<path class="st1" d="M727.05,122.1C726.19,122.1,725.58,122.83,727.05,122.1"/>
	<path class="st1" d="M723.87,115.97C723.01,116.22,723.99,116.22,723.87,115.97"/>
	<path class="st1" d="M723.38,115.85c-0.74,0.37-2.45,0.86-2.21,1.35C721.66,116.71,723.62,115.97,723.38,115.85"/>
	<path class="st1" d="M723.87,116.46c-0.37,0.12-0.86,0.37-0.86,0.49C723.62,116.71,723.87,116.83,723.87,116.46"/>
	<path class="st1" d="M723.99,117.32C724.85,117.08,722.4,117.93,723.99,117.32"/>
	<path class="st1" d="M726.19,121.85C725.46,122.47,726.93,121.73,726.19,121.85"/>
	<path class="st1" d="M724.48,118.91c-0.74,0.25-2.82,1.35-2.33,1.47C722.76,119.77,724.97,118.91,724.48,118.91"/>
	<path class="st1" d="M726.68,123.57c-0.25,0.12-1.72,0.74-0.98,0.61C726.07,123.94,727.42,123.32,726.68,123.57"/>
	<path class="st1" d="M722.52,114.63c-0.12,0-0.12-0.25-0.37-0.12C722.27,114.63,722.27,114.75,722.52,114.63"/>
	<path class="st1" d="M723.74,117.2c-0.12,0-0.12-0.25-0.37-0.12C723.5,117.2,723.5,117.32,723.74,117.2"/>
	<path class="st1" d="M726.32,122.71C724.85,123.08,725.58,123.45,726.32,122.71"/>
	<path class="st1" d="M720.07,110.58C718.6,111.07,720.93,110.22,720.07,110.58"/>
	<path class="st1" d="M721.66,113.89C720.8,114.38,722.52,113.65,721.66,113.89"/>
	<path class="st1" d="M723.99,118.79C722.03,119.4,724.6,118.55,723.99,118.79"/>
	<path class="st1" d="M726.19,123.45C725.46,123.94,727.05,123.2,726.19,123.45"/>
	<path class="st1" d="M721.66,114.5C720.8,114.99,722.52,114.14,721.66,114.5"/>
	<path class="st1" d="M719.58,120.38c-0.25,0.61-1.35,0.74-2.21,1.84c1.59-0.86,4.66-3.31,6.37-3.92
		C722.03,118.42,720.8,120.38,719.58,120.38"/>
	<path class="st1" d="M721.54,114.87C721.54,115.36,722.15,114.63,721.54,114.87"/>
	<path class="st1" d="M722.89,117.57C722.03,117.57,723.5,117.57,722.89,117.57"/>
	<path class="st1" d="M725.34,122.71C724.6,123.2,726.19,122.47,725.34,122.71"/>
	<path class="st1" d="M719.82,111.93C719.09,112.42,720.8,111.69,719.82,111.93"/>
	<path class="st1" d="M722.76,117.93C721.42,118.42,723.62,117.57,722.76,117.93"/>
	<path class="st1" d="M720.93,115.24C720.19,115.85,721.78,114.87,720.93,115.24"/>
	<path class="st1" d="M721.66,118.3c0.24-0.25,0.74-0.49,0.74-0.61C722.03,117.69,721.66,118.06,721.66,118.3"/>
	<path class="st1" d="M724.6,123.08C723.87,123.69,725.34,122.71,724.6,123.08"/>
	<path class="st1" d="M718.97,116.22c0.37-0.25,2.08-1.23,1.35-0.98C719.95,115.48,718.35,116.46,718.97,116.22"/>
	<path class="st1" d="M721.29,117.69C720.56,118.3,722.15,117.2,721.29,117.69"/>
	<path class="st1" d="M724.36,123.81c-0.37,0.25-2.08,1.23-1.47,1.1C723.25,124.55,724.97,123.57,724.36,123.81"/>
	<path class="st1" d="M718.35,112.18C717.5,112.79,719.21,111.69,718.35,112.18"/>
	<path class="st1" d="M720.19,115.85l-0.86,0.49C719.09,116.71,720.31,115.97,720.19,115.85"/>
	<path class="st1" d="M721.42,118.3c-0.49,0.25-2.21,1.23-1.35,1.1C720.19,119.04,721.54,118.67,721.42,118.3"/>
	<path class="st1" d="M721.29,118.79C720.68,119.4,722.15,118.3,721.29,118.79"/>
	<path class="st1" d="M721.91,119.89C721.17,120.51,722.76,119.53,721.91,119.89"/>
	<path class="st1" d="M722.27,120.63C721.54,121.24,723.13,120.26,722.27,120.63"/>
	<path class="st1" d="M717.86,113.4C718.97,112.79,717.86,112.91,717.86,113.4"/>
	<path class="st1" d="M720.56,117.69C721.42,117.32,719.33,118.42,720.56,117.69"/>
	<path class="st1" d="M723.62,123.81C723.87,123.57,723.62,123.69,723.62,123.81"/>
	<path class="st1" d="M708.92,116.71c1.1-0.74,1.72-1.35,2.57-1.59c1.59-1.23,3.31-2.21,5.88-3.92v-0.12
		c-1.59,0.98-3.31,2.08-5.64,3.68c0.12-0.25,0-0.25-0.12-0.25c-1.23,0.86-0.86,1.23-2.21,1.72
		C708.92,116.34,708.8,116.59,708.92,116.71"/>
	<path class="st1" d="M717.5,111.56c-0.86,0.61-2.33,1.35-2.7,1.84C716.03,112.79,716.64,112.67,717.5,111.56"/>
	<path class="st1" d="M715.9,113.52c-0.12,0.74,1.84-0.74,1.96-0.98C717.25,112.54,716.27,113.77,715.9,113.52"/>
	<path class="st1" d="M723.62,123.81l-0.61,0.37C723.13,124.43,723.99,124.06,723.62,123.81"/>
	<path class="st1" d="M720.31,118.3C721.05,117.93,718.72,119.16,720.31,118.3"/>
	<path class="st1" d="M723.62,124.79C723.01,125.41,724.48,124.43,723.62,124.79"/>
	<path class="st1" d="M717.13,113.65c-0.25,0.49,0.86-0.12,0.74-0.37h-0.24L717.13,113.65z"/>
	<path class="st1" d="M716.64,114.26c-0.86,0.49-0.49,0.61-1.23,0.86l0.12,0.25c0.49-0.12,1.96-1.23,2.45-1.72
		C717.5,114.01,716.88,114.38,716.64,114.26"/>
	<path class="st1" d="M719.46,118.18c0.25-0.12,0.25,0,0.25,0.12C720.56,117.69,719.58,117.69,719.46,118.18"/>
	<path class="st1" d="M722.4,122.96C721.78,123.57,723.25,122.59,722.4,122.96"/>
	<path class="st1" d="M719.46,117.2c-0.74,0.61-2.21,1.23-2.57,1.84c0.25-0.12,0.49-0.25,0.49-0.12c-0.37,0.37-1.59,0.86-1.35,1.1
		c0.98-0.86,1.59-0.86,2.08-1.59c-0.24,0.12-0.61,0.37-0.61,0.25C717.74,118.06,719.82,117.44,719.46,117.2"/>
	<path class="st1" d="M720.68,119.53c-0.12,0-0.12-0.25-0.25-0.12C720.44,119.4,720.44,119.65,720.68,119.53"/>
	<path class="st1" d="M722.89,124.3l0.24-0.12C723.01,124.18,722.89,124.3,722.89,124.3"/>
	<path class="st1" d="M716.52,112.91C717.37,112.42,716.39,112.54,716.52,112.91"/>
	<path class="st1" d="M719.82,118.3C718.84,118.79,720.19,118.55,719.82,118.3"/>
	<path class="st1" d="M722.89,124.3C722.64,124.55,723.01,124.43,722.89,124.3"/>
	<path class="st1" d="M719.33,117.81C718.84,117.69,718.23,118.55,719.33,117.81"/>
	<path class="st1" d="M720.56,120.87C719.33,121.49,721.42,120.38,720.56,120.87"/>
	<path class="st1" d="M716.52,112.91C716.15,113.16,716.52,113.03,716.52,112.91"/>
	<path class="st1" d="M716.76,114.01C717.01,113.77,716.64,113.89,716.76,114.01"/>
	<path class="st1" d="M718.11,117.08C718.6,117.2,718.6,116.46,718.11,117.08"/>
	<path class="st1" d="M719.82,119.89C719.09,120.51,720.68,119.53,719.82,119.89"/>
	<path class="st1" d="M721.78,123.57C721.05,124.18,722.52,123.2,721.78,123.57"/>
	<path class="st1" d="M716.76,114.01c-0.25,0.12-0.12,0.12-0.12,0.25C716.76,114.14,716.76,114.14,716.76,114.01"/>
	<path class="st1" d="M718.35,117.57C717.62,118.3,719.21,117.2,718.35,117.57"/>
	<path class="st1" d="M719.21,119.77C719.46,120.26,720.07,119.28,719.21,119.77"/>
	<path class="st1" d="M717.01,118.06c0.49-0.37,0.98-0.61,1.23-0.86v-0.12C717.5,117.44,716.88,117.81,717.01,118.06"/>
	<path class="st1" d="M714.31,111.07C712.72,111.93,715.17,110.58,714.31,111.07"/>
	<path class="st1" d="M717.5,116.95C716.76,117.69,718.35,116.59,717.5,116.95"/>
	<path class="st1" d="M719.21,120.26C717.99,121,720.07,119.77,719.21,120.26"/>
	<path class="st1" d="M720.19,121.98L720.19,121.98C720.44,121.98,720.31,121.98,720.19,121.98"/>
	<path class="st1" d="M715.9,114.5C715.17,115.12,716.76,114.01,715.9,114.5"/>
	<path class="st1" d="M720.19,122.1C719.95,122.34,720.31,122.22,720.19,122.1"/>
	<path class="st1" d="M715.78,122.71l1.23-0.74c-0.24-0.61,1.35-0.98,1.96-1.84c-0.12-0.37-0.74,0.12-1.35,0.49
		c-0.12-0.12,0.61-0.86,0-0.49c0,0.25-0.12,0.12-0.37,0.25c0.49,0.49-1.47,1.47-2.33,2.57c0.98-0.49,1.23-0.86,1.84-1.1
		C716.88,121.98,714.92,122.96,715.78,122.71 M717.62,120.75C718.35,120.75,716.88,121,717.62,120.75"/>
	<path class="st1" d="M719.46,121.73C718.72,121.85,720.07,121.73,719.46,121.73"/>
	<path class="st1" d="M720.07,124.67C720.56,124.67,721.17,123.81,720.07,124.67"/>
	<path class="st1" d="M716.76,117.69C717.01,117.44,716.64,117.57,716.76,117.69"/>
	<path class="st1" d="M714.8,119.65l-1.23,1.23c0.98-0.74,3.68-2.21,3.55-2.45C716.39,118.79,715.05,120.02,714.8,119.65"/>
	<path class="st1" d="M721.78,127C720.68,127.61,722.52,126.63,721.78,127"/>
	<path class="st1" d="M713.33,111.81C711.98,112.54,714.19,111.2,713.33,111.81"/>
	<path class="st1" d="M714.43,113.89c0.24-0.12,0.12-0.37-0.12-0.25C714.43,113.77,714.07,114.01,714.43,113.89"/>
	<path class="st1" d="M715.41,115.12C715.17,114.87,714.56,115.85,715.41,115.12"/>
	<path class="st1" d="M715.54,115.48C714.68,115.97,715.66,115.73,715.54,115.48"/>
	<path class="st1" d="M716.76,117.69C715.66,118.18,716.64,118.06,716.76,117.69"/>
	<path class="st1" d="M715.78,116.83C715.05,117.44,716.64,116.46,715.78,116.83"/>
	<path class="st1" d="M716.39,117.44l-0.24,0.12C716.27,117.69,716.39,117.57,716.39,117.44"/>
	<path class="st1" d="M713.33,115.48c0.74-0.25,0.61-0.49,1.35-0.74C714.8,114.26,713.21,115.36,713.33,115.48"/>
	<path class="st1" d="M716.27,118.3C715.66,119.04,717.01,118.06,716.27,118.3"/>
	<path class="st1" d="M719.82,125.65C720.93,125.28,719.95,124.92,719.82,125.65"/>
	<path class="st1" d="M714.92,120.38c0.74-0.74,1.59-0.86,1.72-1.35C716.03,119.4,714.8,120.02,714.92,120.38"/>
	<path class="st1" d="M713.82,116.46C714.43,116.46,715.17,115.48,713.82,116.46"/>
	<path class="st1" d="M715.66,118.18C714.43,118.91,716.52,117.69,715.66,118.18"/>
	<path class="st1" d="M720.8,127.61C719.7,128.22,721.66,127.24,720.8,127.61"/>
	<path class="st1" d="M713.33,114.5C712.6,115.12,714.19,114.01,713.33,114.5"/>
	<path class="st1" d="M715.41,119.28C714.68,119.89,716.27,118.91,715.41,119.28"/>
	<path class="st1" d="M716.64,120.87c-0.37,0.25-1.23,0.61-1.1,0.86C716.15,121.12,716.64,121.24,716.64,120.87"/>
	<path class="st1" d="M717.37,122.22l-0.25,0.12C717.25,122.47,717.37,122.34,717.37,122.22"/>
	<path class="st1" d="M716.03,120.26l-0.86,0.37C714.92,121.12,716.15,120.38,716.03,120.26"/>
	<path class="st1" d="M718.97,126.02C718.23,126.63,719.82,125.65,718.97,126.02"/>
	<path class="st1" d="M712.47,114.99C712.6,114.99,712.6,114.99,712.47,114.99C712.23,115.12,711.25,115.61,712.47,114.99"/>
	<path class="st1" d="M714.68,118.91C713.94,119.65,715.54,118.55,714.68,118.91"/>
	<path class="st1" d="M712.47,115.48C713.33,114.99,711.25,116.22,712.47,115.48"/>
	<path class="st1" d="M713.58,118.06C711.74,119.04,714.31,117.69,713.58,118.06"/>
	<path class="st1" d="M713.7,118.18C714.56,117.81,712.11,119.04,713.7,118.18"/>
	<path class="st1" d="M715.9,122.96C716.15,122.71,715.78,122.83,715.9,122.96"/>
	<path class="st1" d="M711.37,115.12C711.13,115.36,711.49,115.12,711.37,115.12"/>
	<path class="st1" d="M711.62,116.1C712.6,115.61,710.39,116.83,711.62,116.1"/>
	<path class="st1" d="M711.25,115.85C710.51,116.46,712.11,115.36,711.25,115.85"/>
	<path class="st1" d="M714.43,121.24C714.8,120.51,713.58,121.61,714.43,121.24"/>
	<path class="st1" d="M714.8,121.98c-0.25,0.25-1.59,0.98-0.98,0.74C714.19,122.59,715.54,121.73,714.8,121.98"/>
	<path class="st1" d="M714.68,122.34C713.94,122.96,715.54,121.98,714.68,122.34"/>
	<path class="st1" d="M712.47,119.04C711.74,119.65,713.33,118.55,712.47,119.04"/>
	<path class="st1" d="M714.31,123.57c0.25,0,1.1-0.37,0.74-0.61C714.8,123.2,714.31,123.45,714.31,123.57"/>
	<path class="st1" d="M717.5,127.61C716.88,128.22,718.35,127.24,717.5,127.61"/>
	<path class="st1" d="M717.13,127.37C716.52,127.86,717.99,127.12,717.13,127.37"/>
	<path class="st1" d="M710.39,116.34C709.65,116.95,711.25,115.97,710.39,116.34"/>
	<path class="st1" d="M712.96,121.24C713.58,121.36,713.45,120.51,712.96,121.24"/>
	<path class="st1" d="M711.74,119.16C709.9,120.14,712.35,118.91,711.74,119.16"/>
	<path class="st1" d="M712.84,121.12C713.09,120.87,712.84,121,712.84,121.12"/>
	<path class="st1" d="M710.51,119.53C711.98,118.91,711,118.79,710.51,119.53"/>
	<path class="st1" d="M709.16,116.22C709.41,115.85,709.04,116.1,709.16,116.22"/>
	<path class="st1" d="M709.78,117.32C709.04,117.93,710.64,116.83,709.78,117.32"/>
	<path class="st1" d="M716.39,127.86c-0.86,0.37-1.35,1.1-1.72,1.1C714.92,129.2,716.64,127.86,716.39,127.86"/>
	<path class="st1" d="M711.25,120.26C710.02,120.87,712.11,119.77,711.25,120.26"/>
	<path class="st1" d="M712.35,122.1C711.74,122.83,713.21,121.73,712.35,122.1"/>
	<path class="st1" d="M708.31,117.69c0.37-0.37,0.86-0.25,0.86-0.49c-0.24,0.12-0.24,0-0.12-0.25
		C708.55,117.32,708.31,117.57,708.31,117.69"/>
	<path class="st1" d="M709.9,121.36c-0.24-0.12,0.98-0.61,0.74-0.74C710.15,120.87,709.16,121.61,709.9,121.36"/>
	<path class="st1" d="M709.29,120.26C710.15,119.77,707.94,120.87,709.29,120.26"/>
	<path class="st1" d="M713.21,126.75l0.25-0.12C713.33,126.51,713.21,126.75,713.21,126.75"/>
	<path class="st1" d="M707.08,118.55C706.22,119.16,707.94,118.18,707.08,118.55"/>
	<path class="st1" d="M708.55,121C707.82,121.61,709.53,120.63,708.55,121"/>
	<path class="st1" d="M708.92,121.49C708.18,122.1,709.78,121.12,708.92,121.49"/>
	<path class="st1" d="M715.17,131.9C714.56,132.51,716.03,131.66,715.17,131.9"/>
	<path class="st1" d="M706.59,118.79c-1.23,0.49-2.08,1.84-3.68,2.7C703.41,121.85,706.35,119.28,706.59,118.79"/>
	<path class="st1" d="M708.06,121.12C706.59,121.73,707.33,121.98,708.06,121.12"/>
	<path class="st1" d="M708.31,121.85C707.57,122.47,709.16,121.49,708.31,121.85"/>
	<path class="st1" d="M714.92,131.9C714.68,132.15,714.92,132.02,714.92,131.9"/>
	<path class="st1" d="M705.37,117.81C704.63,118.42,706.35,117.44,705.37,117.81"/>
	<path class="st1" d="M708.06,121.61c-0.37,0.25-0.86,0.61-0.86,0.86C707.69,122.1,708.18,121.85,708.06,121.61"/>
	<path class="st1" d="M705.49,118.42C706.35,117.93,704.14,119.16,705.49,118.42"/>
	<path class="st1" d="M705.86,120.02c-0.24,0.12-0.12,0.12-0.12,0.25C705.86,120.14,705.86,120.02,705.86,120.02"/>
	<path class="st1" d="M702.55,116.71C701.81,117.44,703.41,116.1,702.55,116.71"/>
	<path class="st1" d="M702.92,117.32C702.3,118.06,703.77,116.83,702.92,117.32"/>
	<path class="st1" d="M706.59,123.32l0.12,0.12C706.96,123.32,706.84,123.2,706.59,123.32"/>
	<path class="st1" d="M701.45,117.81C702.3,117.57,701.81,116.95,701.45,117.81"/>
	<path class="st1" d="M702.43,118.91l0.37-0.37c0-0.25-0.37,0.12-0.74,0.37v0.12L702.43,118.91z"/>
	<path class="st1" d="M705.24,123.57C704.63,124.3,706.1,122.96,705.24,123.57"/>
	<path class="st1" d="M701.45,117.81C701.2,118.06,701.45,117.93,701.45,117.81"/>
	<path class="st1" d="M701.32,118.18C700.59,118.91,702.18,117.57,701.32,118.18"/>
	<path class="st1" d="M701.08,118.79v0.49l0.74-0.61C701.81,118.18,701.32,118.67,701.08,118.79"/>
	<path class="st1" d="M699.49,117.2C700.34,116.83,700.1,116.1,699.49,117.2"/>
	<path class="st1" d="M702.06,119.16C701.2,119.4,701.69,120.02,702.06,119.16"/>
	<path class="st1" d="M712.11,134.6C711.49,135.33,712.84,134.11,712.11,134.6"/>
	<path class="st1" d="M699.85,119.28c0.24-0.25,1.47-1.23,0.74-0.74C700.34,118.67,699.24,119.65,699.85,119.28"/>
	<path class="st1" d="M702.06,120.63C700.83,121.49,702.92,120.02,702.06,120.63"/>
	<path class="st1" d="M703.41,124.79l0.25,0.25c0.61-0.49,0.74-0.74,0.74-1.1l-0.61,0.37C703.9,124.55,703.77,124.67,703.41,124.79"
		/>
	<path class="st1" d="M699.49,117.2C699.24,117.57,699.61,117.32,699.49,117.2"/>
	<path class="st1" d="M699.36,118.06C699.98,118.06,699.85,117.2,699.36,118.06"/>
	<path class="st1" d="M699.73,118.06C697.65,119.53,699.49,118.79,699.73,118.06"/>
	<path class="st1" d="M700.71,119.89c0.12,0,0.12,0.12,0.37,0C700.96,119.89,700.83,119.77,700.71,119.89"/>
	<path class="st1" d="M699.12,118.18l0.25-0.12C699.24,117.93,699.12,118.06,699.12,118.18"/>
	<path class="st1" d="M699.98,119.28C699.24,120.14,700.83,118.79,699.98,119.28"/>
	<path class="st1" d="M699.12,118.18l-0.86,0.61C698.14,119.28,699.36,118.3,699.12,118.18"/>
	<path class="st1" d="M701.08,121.49C700.47,122.22,701.94,120.87,701.08,121.49"/>
	<path class="st1" d="M710.39,135.94C709.78,136.68,711.13,135.45,710.39,135.94"/>
	<path class="st1" d="M698.87,120.38C698.14,121.12,699.73,119.89,698.87,120.38"/>
	<path class="st1" d="M698.51,121.24C699.12,121.12,699.73,120.14,698.51,121.24"/>
	<path class="st1" d="M697.4,118.91C698.26,118.3,696.18,119.89,697.4,118.91"/>
	<path class="st1" d="M699,123.32c0.24-0.25,1.47-1.23,0.74-0.74C699.49,122.83,698.38,123.81,699,123.32"/>
	<path class="st1" d="M697.16,119.77C695.93,120.63,698.02,119.16,697.16,119.77"/>
	<path class="st1" d="M709.29,137.17c-0.37,0.37-0.49,0.12-0.98,0.61C708.31,138.27,709.41,137.29,709.29,137.17"/>
	<path class="st1" d="M698.63,122.71c-0.12,0-0.12-0.12-0.37,0C698.38,122.71,698.38,122.83,698.63,122.71"/>
	<path class="st1" d="M695.69,120.38c0.25-0.25,0.37-0.12,0.61-0.37l-0.24-0.25l-0.61,0.49L695.69,120.38z"/>
	<path class="st1" d="M694.59,118.91C693.85,119.65,695.44,118.3,694.59,118.91"/>
	<path class="st1" d="M694.59,119.4C695.44,118.79,693.36,120.26,694.59,119.4"/>
	<path class="st1" d="M697.53,123.45C696.91,124.18,698.38,122.96,697.53,123.45"/>
	<path class="st1" d="M694.71,120.02C693.97,120.75,695.57,119.4,694.71,120.02"/>
	<path class="st1" d="M695.93,121.61C695.2,122.34,696.79,121.12,695.93,121.61"/>
	<path class="st1" d="M706.59,136.31l0.12-0.12C706.71,136.07,706.59,136.19,706.59,136.31"/>
	<path class="st1" d="M693.97,119.4C692.38,120.51,694.71,118.79,693.97,119.4"/>
	<path class="st1" d="M694.71,125.28c0.74-0.37,1.84-1.23,2.33-2.08C695.69,124.3,695.57,124.43,694.71,125.28"/>
	<path class="st1" d="M697.53,124.18C696.79,125.04,698.38,123.69,697.53,124.18"/>
	<path class="st1" d="M697.77,124.18l-0.61,0.49C697.16,125.28,698.26,124.3,697.77,124.18"/>
	<path class="st1" d="M694.59,120.63C695.2,120.26,692.63,121.98,694.59,120.63"/>
	<path class="st1" d="M694.71,122.59l0.12,0.12c0.37,0.25,1.23-1.23,0.49-0.61C695.32,122.34,695.08,122.34,694.71,122.59"/>
	<path class="st1" d="M690.79,122.22c0.61-0.49,2.7-2.08,2.21-1.96C692.38,120.75,690.3,122.34,690.79,122.22"/>
	<path class="st1" d="M693.24,120.63C692.5,121.49,694.1,120.14,693.24,120.63"/>
	<path class="st1" d="M696.18,124.67C694.34,125.9,696.79,124.18,696.18,124.67"/>
	<path class="st1" d="M696.06,126.02c-0.12,0-0.12-0.12-0.37,0C695.81,126.14,695.81,126.26,696.06,126.02"/>
	<path class="st1" d="M695.08,125.65C694.22,125.9,694.71,126.39,695.08,125.65"/>
	<path class="st1" d="M695.32,126.02C694.1,126.88,695.44,126.51,695.32,126.02"/>
	<path class="st1" d="M694.46,125.41c-0.98,0.86-1.47,1.35-1.84,1.72l0.12,0.12c0.61-0.74,1.72-1.1,1.72-1.47
		C693.97,125.9,694.59,125.53,694.46,125.41"/>
	<path class="st1" d="M694.95,127.61C694.71,127.37,694.22,128.35,694.95,127.61"/>
	<path class="st1" d="M690.91,123.69C691.77,123.2,689.32,124.92,690.91,123.69"/>
	<path class="st1" d="M693.97,128.35C694.22,128.1,693.85,128.35,693.97,128.35"/>
	<path class="st1" d="M689.44,123.2C688.22,124.06,690.3,122.47,689.44,123.2"/>
	<path class="st1" d="M691.65,127.24c0.37-0.12,0.86-0.49,0.74-0.74C692.14,126.75,691.65,127,691.65,127.24"/>
	<path class="st1" d="M692.63,127.12L692.63,127.12l-1.35,1.1l0.12,0.12c0.25-0.12,0.61-0.37,0.61-0.49l0.61-0.49
		C692.5,127.24,692.5,127.24,692.63,127.12"/>
	<path class="st1" d="M692.75,127.24l-0.24,0.12C692.63,127.37,692.75,127.24,692.75,127.24"/>
	<path class="st1" d="M689.93,124.55C689.2,125.41,690.79,124.06,689.93,124.55"/>
	<path class="st1" d="M691.77,128.59c0.37-0.37,0.49-0.25,0.86-0.61v-0.37C692.5,127.86,691.65,128.35,691.77,128.59"/>
	<path class="st1" d="M688.71,124.3C688.09,125.16,689.56,123.69,688.71,124.3"/>
	<path class="st1" d="M690.3,128.59c0.37-0.49,1.23-1.1,1.23-1.35C691.03,127.37,690.42,128.22,690.3,128.59"/>
	<path class="st1" d="M688.34,124.18C686.5,125.77,688.83,123.69,688.34,124.18"/>
	<path class="st1" d="M688.22,125.04c-0.12,0.12-0.86,0.49-0.74,0.74C687.85,125.28,688.34,125.41,688.22,125.04"/>
	<path class="st1" d="M688.09,125.53C687.36,126.39,688.83,124.92,688.09,125.53"/>
	<path class="st1" d="M687.24,125.41c-0.74,0.37-2.08,2.08-2.94,3.06l0.12,0.12C685.03,127.61,686.5,126.63,687.24,125.41"/>
	<path class="st1" d="M687.36,126.39C687.97,125.65,685.89,127.61,687.36,126.39"/>
	<path class="st1" d="M688.95,130.8c0.37,0,1.35-1.1,1.23-1.35c-1.23,0.74-2.7,2.94-4.53,4.53
		C686.75,133.62,688.09,131.9,688.95,130.8"/>
	<path class="st1" d="M688.71,128.1c-0.49,0.49-0.61,0.74-0.37,0.86C688.95,128.47,688.58,128.35,688.71,128.1"/>
	<path class="st1" d="M685.64,125.53C685.03,126.39,686.5,124.92,685.64,125.53"/>
	<path class="st1" d="M688.95,129.82C688.34,130.68,689.69,129.2,688.95,129.82"/>
	<path class="st1" d="M686.01,128.1C685.64,128.96,686.87,127.61,686.01,128.1"/>
	<path class="st1" d="M686.26,128.35C685.64,129.2,687.11,127.73,686.26,128.35"/>
	<path class="st1" d="M687.36,129.57c-0.25,0.25-1.35,1.35-0.61,0.86C686.87,130.19,687.97,129.08,687.36,129.57"/>
	<path class="st1" d="M688.22,130.68C687.6,131.41,688.95,129.94,688.22,130.68"/>
	<path class="st1" d="M685.77,128.96C686.26,128.47,684.05,130.43,685.77,128.96"/>
	<path class="st1" d="M686.62,129.57C686.5,129.94,686.75,129.69,686.62,129.57"/>
	<path class="st1" d="M686.99,130.43C685.28,131.9,687.6,129.94,686.99,130.43"/>
	<path class="st1" d="M682.95,126.88C682.34,127.73,683.81,126.26,682.95,126.88"/>
	<path class="st1" d="M682.95,130.19c0.61-0.61,0.61-0.98,1.35-1.59C683.81,128.84,682.7,130.06,682.95,130.19"/>
	<path class="st1" d="M688.46,133.62C688.95,133.13,686.75,135.09,688.46,133.62"/>
	<path class="st1" d="M683.81,129.57C683.19,130.43,684.66,128.84,683.81,129.57"/>
	<path class="st1" d="M687.36,134.72C688.09,134.11,686.26,135.82,687.36,134.72"/>
	<path class="st1" d="M683.44,130.68C682.83,131.53,684.3,130.06,683.44,130.68"/>
	<path class="st1" d="M684.3,132.02C683.44,132.39,684.05,132.88,684.3,132.02"/>
	<path class="st1" d="M683.19,131.66C682.58,132.39,684.05,130.92,683.19,131.66"/>
	<path class="st1" d="M682.83,131.66C682.21,132.51,683.68,130.92,682.83,131.66"/>
	<path class="st1" d="M686.75,135.94C686.99,135.58,686.62,135.82,686.75,135.94"/>
	<path class="st1" d="M680.62,129.45C681.23,128.84,679.03,130.8,680.62,129.45"/>
	<path class="st1" d="M685.64,134.72C685.4,133.98,685.03,135.09,685.64,134.72"/>
	<path class="st1" d="M681.48,132.51C683.07,130.55,680.99,132.51,681.48,132.51"/>
	<path class="st1" d="M684.91,134.23C684.66,134.6,685.03,134.35,684.91,134.23"/>
	<path class="st1" d="M682.21,132.02C681.11,133.13,682.95,131.29,682.21,132.02"/>
	<path class="st1" d="M686.01,136.19C685.4,137.05,686.75,135.58,686.01,136.19"/>
	<path class="st1" d="M682.34,132.51c-0.37,0.49-2.08,2.08-1.59,1.84C681.11,133.86,682.83,132.27,682.34,132.51"/>
	<path class="st1" d="M684.54,135.45C685.4,134.72,684.42,135.21,684.54,135.45"/>
	<path class="st1" d="M684.79,135.7c0-0.12,0.25-0.37,0.25-0.49l-0.37,0.25l-0.12,0.25C684.42,135.7,684.54,135.82,684.79,135.7"/>
	<path class="st1" d="M681.48,132.51C681.72,132.64,682.21,131.53,681.48,132.51"/>
	<path class="st1" d="M681.11,132.02c-0.24,0.12-4.78,5.27-4.9,5.27c-0.12-0.12,1.84-1.84,0.74-1.1c-0.37,0.25-1.1,1.47-1.1,1.47
		l0.25,0.25C677.43,135.82,679.64,133.98,681.11,132.02"/>
	<path class="st1" d="M682.7,137.17c0.12,0.49,1.23-0.61,1.47-1.1l-0.12-0.12c-0.49,0.25-0.24,0.37-0.86,0.98
		C683.19,136.8,682.95,137.05,682.7,137.17"/>
	<path class="st1" d="M680.5,133.25C679.27,134.35,681.23,132.51,680.5,133.25"/>
	<path class="st1" d="M680.37,133.62C679.76,134.47,681.23,133,680.37,133.62"/>
	<path class="st1" d="M680.5,134.84c-0.12,0-0.12-0.12-0.37,0C680.25,134.84,680.25,134.96,680.5,134.84"/>
	<path class="st1" d="M682.09,137.29C680.99,138.39,682.83,136.56,682.09,137.29"/>
	<path class="st1" d="M678.05,133.49C677.43,134.35,678.9,132.76,678.05,133.49"/>
	<polygon class="st1" points="679.76,135.58 680.13,135.21 680.01,135.09 679.64,135.45 	"/>
	<path class="st1" d="M678.54,136.68c-2.33,2.7-0.24,0.74,0.49-0.61C678.9,136.31,678.78,136.31,678.54,136.68"/>
	<path class="st1" d="M676.45,134.11c-0.12,0-0.12-0.12-0.37,0C676.21,134.11,676.33,134.23,676.45,134.11"/>
	<path class="st1" d="M677.68,136.19c-0.24,0.25-0.37,0.49-0.24,0.49c-2.21,2.57-0.49,0.98,0.37-0.37
		C677.68,136.56,677.68,136.31,677.68,136.19"/>
	<path class="st1" d="M674.74,134.96c-0.61,0.86-2.57,3.06-2.21,3.06C673.15,137.17,675.11,134.96,674.74,134.96"/>
	<path class="st1" d="M676.94,138.64C676.33,139.62,677.68,137.9,676.94,138.64"/>
	<path class="st1" d="M674.25,140.11c0.86-1.23,1.35-1.23,1.84-2.33c-0.37,0.12-0.74,0.61-1.1,0.74
		C675.23,138.64,674,139.99,674.25,140.11"/>
	<path class="st1" d="M676.09,138.15C676.7,137.54,674.74,139.62,676.09,138.15"/>
	<path class="st1" d="M675.72,139.37C675.11,140.23,676.45,138.64,675.72,139.37"/>
	<path class="st1" d="M675.23,139.25C674.74,140.11,675.96,138.52,675.23,139.25"/>
	<path class="st1" d="M674.49,140.23C673.88,141.21,675.23,139.5,674.49,140.23"/>
	<path class="st1" d="M672.04,143.78c0.86-0.86,4.41-5.76,0.74-1.1c-0.25,0.25-0.25,0.37-0.37,0.37
		C672.04,143.42,671.92,143.78,672.04,143.78"/>
	<path class="st1" d="M672.04,138.39c-0.24,0.37-0.98,0.98-0.74,1.1C671.8,138.76,672.17,138.76,672.04,138.39"/>
	<path class="st1" d="M671.8,143.29c0.12-1.59,1.72-1.35,1.96-2.82c-0.74,0.49-1.59,1.47-2.45,2.82
		C671.55,143.29,671.55,143.54,671.8,143.29"/>
	<path class="st1" d="M676.21,145.62C677.31,144.4,676.33,145.01,676.21,145.62"/>
	<path class="st1" d="M672.41,143.05C673.76,141.58,672.66,142.19,672.41,143.05"/>
	<path class="st1" d="M665.43,147.09c0.86-1.47,4.29-5.27,5.15-6.86C668.98,142.44,666.16,145.38,665.43,147.09"/>
	<path class="st1" d="M676.09,145.38C675.47,146.36,676.7,144.76,676.09,145.38"/>
	<path class="st1" d="M675.6,145.99C676.21,145.38,674.25,147.46,675.6,145.99"/>
	<path class="st1" d="M667.14,145.87c0.86-1.23,3.31-3.92,3.19-4.29C669.1,143.29,667.63,144.4,667.14,145.87"/>
	<path class="st1" d="M675.11,145.99C674.49,146.85,675.84,145.25,675.11,145.99"/>
	<path class="st1" d="M675.23,146.11c-0.37,0.49-1.72,2.08-1.23,1.72C674.37,147.34,675.84,145.74,675.23,146.11"/>
	<path class="st1" d="M671.68,144.27C671.19,145.13,672.41,143.54,671.68,144.27"/>
	<path class="st1" d="M671.92,144.4C672.53,143.54,670.82,145.5,671.92,144.4"/>
	<path class="st1" d="M670.82,143.78c-0.37,0.74-0.49,0.37-0.86,0.74C669.35,146.11,671.31,143.54,670.82,143.78"/>
	<path class="st1" d="M671.06,144.03C670.57,144.89,671.8,143.29,671.06,144.03"/>
	<path class="st1" d="M674.62,147.21C674,148.19,675.35,146.48,674.62,147.21"/>
	<path class="st1" d="M670.7,145.38c0.24-0.37,0.61-0.74,0.61-0.86C670.94,144.64,670.57,145.25,670.7,145.38"/>
	<path class="st1" d="M669.1,144.64c0,0.49,1.1-0.86,0.86-0.98C669.59,144.27,669.35,144.52,669.1,144.64"/>
	<path class="st1" d="M670.82,144.4c-0.49,0.74-0.86,0.74-1.35,1.59c0.61-1.1-0.49,0.12-0.61,0.61c0.12-0.25,0.37-0.37,0.37-0.37
		c0,0.25-0.74,0.98-0.61,1.23C668.98,146.85,670.33,145.25,670.82,144.4"/>
	<path class="st1" d="M670.57,145.99c-0.12,0.12-0.37,0.37-0.37,0.37C670.33,146.23,670.45,145.99,670.57,145.99
		c0.25-0.37,0.86-0.61,0.86-0.98c-0.49,0.12-1.1,1.1-1.84,1.96C669.72,147.09,670.57,146.48,670.57,145.99"/>
	<path class="st1" d="M670.21,145.74C669.59,146.6,670.94,145.01,670.21,145.74"/>
	<path class="st1" d="M673.39,149.3C672.41,150.4,674,148.56,673.39,149.3"/>
	<path class="st1" d="M667.27,147.34c0.61-0.86,1.23-1.59,1.47-2.21C668,146.11,667.02,147.21,667.27,147.34"/>
	<path class="st1" d="M668.86,145.99C668.37,146.85,669.59,145.25,668.86,145.99"/>
	<path class="st1" d="M669.59,146.97C669.23,146.97,668.86,148.07,669.59,146.97"/>
	<path class="st1" d="M669.59,147.34C670.33,146.48,668.61,148.44,669.59,147.34"/>
	<path class="st1" d="M666.78,146.11c-0.25,0.25-1.23,1.47-0.61,0.86C666.41,146.85,667.39,145.5,666.78,146.11"/>
	<path class="st1" d="M668.74,147.95c-0.25,0.25-1.35,1.72-0.74,1.1C668.25,148.68,669.35,147.34,668.74,147.95"/>
	<path class="st1" d="M667.51,148.93c0.61-0.74,0.74-1.1,0.74-1.47C668.12,147.95,667.14,148.81,667.51,148.93"/>
	<path class="st1" d="M667.63,147.58C667.02,148.56,668.37,146.85,667.63,147.58"/>
	<path class="st1" d="M668.61,148.56C667.02,150.28,669.1,147.95,668.61,148.56"/>
	<path class="st1" d="M666.78,147.58C666.29,148.56,667.51,146.85,666.78,147.58"/>
	<path class="st1" d="M670.94,151.26C670.21,151.99,671.19,151.5,670.94,151.26"/>
	<path class="st1" d="M667.02,148.56C667.27,148.19,666.9,148.44,667.02,148.56"/>
	<path class="st1" d="M667.02,148.56C665.92,149.91,666.9,149.17,667.02,148.56"/>
	<path class="st1" d="M665.92,149.05c-0.61,0.86-1.59,1.96-1.59,2.45C665.31,150.4,665.31,150.4,665.92,149.05"/>
	<path class="st1" d="M666.65,150.28C666.9,150.4,667.14,149.3,666.65,150.28"/>
	<path class="st1" d="M667.27,150.4C666.78,151.38,667.88,149.66,667.27,150.4"/>
	<path class="st1" d="M667.39,150.64C668,149.79,666.41,151.87,667.39,150.64"/>
	<path class="st1" d="M666.53,149.91c-0.24,0.37-0.61,0.86-0.49,0.98l0.49-0.61V149.91z"/>
	<path class="st1" d="M663.1,150.4c0.37-0.49,0.86-0.86,1.23-1.72c0.12-0.25,0.12-0.37,0-0.37l-2.33,3.55
		c-0.61,0.74-0.74,1.35-0.12,0.25L663.1,150.4z"/>
	<path class="st1" d="M665.67,149.91C665.18,150.77,666.41,149.05,665.67,149.91"/>
	<path class="st1" d="M665.8,150.28C666.29,149.54,664.57,151.75,665.8,150.28"/>
	<path class="st1" d="M665.92,151.13C665.31,151.38,665.06,152.6,665.92,151.13"/>
	<path class="st1" d="M662.37,152.6c0.25-0.49,1.47-2.08,0.98-1.59C663.1,151.38,661.88,153.09,662.37,152.6"/>
	<path class="st1" d="M660.77,153.71C659.79,154.93,661.39,152.85,660.77,153.71"/>
	<path class="st1" d="M661.02,154.2C660.53,155.18,661.75,153.46,661.02,154.2"/>
	<path class="st1" d="M660.77,154.32C661.26,153.71,659.3,156.16,660.77,154.32"/>
	<path class="st1" d="M661.51,154.93C662.12,154.07,660.53,156.16,661.51,154.93"/>
	<path class="st1" d="M659.43,155.67c0.12-0.12,0.98-1.1,0.86-1.35C659.92,155.05,659.67,155.18,659.43,155.67
		C656.61,159.34,658.69,157.26,659.43,155.67"/>
	<path class="st1" d="M660.77,154.69c-0.49,0.86-2.33,3.31-1.96,3.19C659.3,156.65,661.02,155.05,660.77,154.69"/>
	<path class="st1" d="M660.41,156.52C661.02,155.67,659.43,157.75,660.41,156.52"/>
	<path class="st1" d="M659.3,157.26C658.32,158.49,659.92,156.4,659.3,157.26"/>
	<path class="st1" d="M659.43,158C660.04,157.14,658.45,159.34,659.43,158"/>
	<path class="st1" d="M660.28,158.73C659.55,159.59,660.53,158.98,660.28,158.73"/>
	<path class="st1" d="M658.08,158C657.59,158.98,658.81,157.26,658.08,158"/>
	<path class="st1" d="M658.2,158.49C657.83,159.47,658.81,157.87,658.2,158.49"/>
	<path class="st1" d="M657.47,158.49c-2.08,2.82-4.53,6.49-5.64,9.19C653.91,164,655.51,161.67,657.47,158.49"/>
	<path class="st1" d="M657.22,161.06C657.83,160.2,656.36,162.41,657.22,161.06"/>
	<path class="st1" d="M656.61,161.67C656.24,162.65,657.34,160.81,656.61,161.67"/>
	<path class="st1" d="M657.59,161.92c-0.12,0-0.24,0.25-0.37,0.37C657.22,162.41,657.47,162.16,657.59,161.92"/>
	<path class="st1" d="M655.63,161.92C655.02,162.53,655.63,162.77,655.63,161.92"/>
	<path class="st1" d="M653.79,166.08L653.79,166.08C654.03,165.96,653.91,165.96,653.79,166.08"/>
	<path class="st1" d="M592.29,193.4C591.55,192.67,592.78,194.38,592.29,193.4"/>
</g>
</svg>
